<svg version="1.2" xmlns="http://www.w3.org/2000/svg" viewBox="0 0 763 498" width="763" height="498">
	<style>
		.s0 { fill: #1f140f } 
		.s1 { fill: #ffffff } 
	</style>
	<g>
		<path fill-rule="evenodd" class="s0" d="m299.75 270.67v88.77l-76.31-88.77h-26.56v145.58h35.39v-81.58l69.72 81.58h33.16v-145.58h-35.4z"/>
		<path fill-rule="evenodd" class="s0" d="m674.16 383.74v-113.07h-36.01v145.58h108.81v-32.51h-72.8z"/>
		<path fill-rule="evenodd" class="s0" d="m529.79 270.67l-25.3 44.71-53.63 100.56h37.9l48.24-90.96 47.72 90.96h39.12l-78.05-145.27h-16z"/>
		<path fill-rule="evenodd" class="s0" d="m487.72 270.36h-138.16v35.4h51.49v110.18h35.4v-110.18h51.27v-35.4z"/>
		<path class="s0" d="m181.42 415.94l-78.06-145.27h-13.53l-25.3 44.72-53.57 100.45q-0.2 0.25-0.41 0.51l25.01 19.19c17.82-23.23 48.52-48.9 96.79-42.58l12.41 22.99c0 0 36.66 0 36.66-0.01zm-108.43-48.33l22.55-43.27 19.07 35.6c-14.5 0.26-28.43 2.88-41.62 7.67z"/>
	</g>
	<g>
		<path class="s0" d="m211.82 455.52q-1.03-2.18-3-3.38-1.96-1.2-4.57-1.2-2.61 0-4.7 1.2-2.09 1.2-3.29 3.43-1.2 2.23-1.2 5.16 0 2.93 1.2 5.14 1.2 2.21 3.29 3.41 2.1 1.2 4.7 1.2 3.64 0 6-2.18 2.36-2.18 2.75-5.89h-9.93v-2.64h13.39v2.5q-0.28 3.07-1.93 5.63-1.65 2.55-4.32 4.04-2.68 1.48-5.96 1.48-3.47 0-6.32-1.63-2.86-1.62-4.52-4.52-1.66-2.89-1.66-6.54 0-3.64 1.66-6.55 1.66-2.91 4.52-4.54 2.85-1.62 6.32-1.62 3.96 0 7.02 1.96 3.05 1.97 4.45 5.54c0 0-3.89 0-3.9 0z"/>
		<path class="s0" d="m237.61 464.63h-15.64q0.18 2.9 1.98 4.52 1.8 1.62 4.37 1.62 2.11 0 3.52-0.98 1.41-0.99 1.98-2.63h3.5q-0.78 2.82-3.14 4.59-2.35 1.77-5.86 1.77-2.79 0-4.98-1.25-2.19-1.25-3.45-3.55-1.25-2.31-1.25-5.34 0-3.03 1.22-5.32 1.22-2.29 3.41-3.52 2.2-1.23 5.05-1.23c1.9 0 3.5 0.4 4.93 1.21q2.15 1.21 3.3 3.34 1.16 2.13 1.16 4.8 0 0.93-0.11 1.96zm-4.07-5.84q-0.82-1.34-2.23-2.04-1.41-0.7-3.13-0.7-2.46 0-4.2 1.57-1.74 1.57-1.98 4.36h12.36q0-1.86-0.82-3.19z"/>
		<path class="s0" d="m245.07 456.3v11.54q0 1.43 0.61 2.02 0.61 0.59 2.11 0.59h2.39v2.75h-2.93q-2.72 0-4.07-1.25-1.36-1.25-1.36-4.11v-11.54h-2.54v-2.68h2.54v-4.93h3.25v4.93h5.11v2.68z"/>
		<path class="s0" d="m261.97 449.8q-0.64-0.64-0.64-1.57 0-0.93 0.64-1.57 0.64-0.64 1.57-0.64c0.62 0 1.1 0.21 1.52 0.64q0.62 0.64 0.62 1.57 0 0.93-0.62 1.57-0.63 0.64-1.52 0.64-0.91 0-1.57-0.64zm3.14 3.83v19.57h-3.25v-19.57z"/>
		<path class="s0" d="m273.72 456.3v11.54q0 1.43 0.61 2.02 0.61 0.59 2.11 0.59h2.39v2.75h-2.93q-2.72 0-4.07-1.25-1.36-1.25-1.36-4.11v-11.54h-2.54v-2.68h2.54v-4.93h3.25v4.93h5.11v2.68z"/>
		<path class="s0" d="m308.25 464.63h-15.64q0.18 2.9 1.98 4.52 1.8 1.62 4.37 1.62 2.11 0 3.52-0.98 1.41-0.99 1.98-2.63h3.5q-0.78 2.82-3.14 4.59-2.35 1.77-5.86 1.77-2.79 0-4.98-1.25-2.19-1.25-3.45-3.55-1.25-2.31-1.25-5.34 0-3.03 1.22-5.32 1.22-2.29 3.41-3.52 2.2-1.23 5.05-1.23c1.9 0 3.5 0.4 4.93 1.21q2.15 1.21 3.3 3.34 1.16 2.13 1.16 4.8 0 0.93-0.11 1.96zm-4.07-5.84q-0.82-1.34-2.23-2.04-1.41-0.7-3.13-0.7-2.46 0-4.2 1.57-1.74 1.57-1.98 4.36h12.36q0-1.86-0.82-3.19z"/>
		<path class="s0" d="m311.75 458.07q1.21-2.26 3.34-3.52 2.13-1.25 4.73-1.25c1.74 0 3.2 0.37 4.46 1.11q1.89 1.11 2.82 2.79v-3.57h3.29v19.57h-3.29v-3.64q-0.96 1.71-2.88 2.84-1.91 1.13-4.45 1.13c-1.69 0-3.31-0.43-4.71-1.29q-2.11-1.29-3.32-3.61-1.22-2.32-1.22-5.29c0-1.98 0.4-3.76 1.23-5.27zm14.47 1.45q-0.9-1.64-2.41-2.52-1.51-0.88-3.34-0.88-1.82 0-3.32 0.86-1.5 0.86-2.39 2.5-0.89 1.65-0.89 3.86 0 2.23 0.89 3.91 0.89 1.66 2.39 2.54 1.5 0.87 3.32 0.87 1.82 0 3.34-0.87 1.52-0.87 2.41-2.54 0.89-1.66 0.89-3.87 0-2.21-0.89-3.86z"/>
		<path class="s0" d="m337.9 472.75q-1.78-0.77-2.82-2.14-1.04-1.38-1.14-3.16h3.36q0.14 1.47 1.37 2.39 1.23 0.93 3.23 0.93 1.86 0 2.93-0.82 1.07-0.83 1.07-2.07c0-0.83-0.38-1.49-1.14-1.91q-1.14-0.63-3.54-1.23-2.18-0.57-3.55-1.16-1.37-0.59-2.36-1.75-0.98-1.16-0.98-3.05 0-1.5 0.89-2.75 0.89-1.25 2.54-1.98 1.64-0.73 3.75-0.73 3.26 0 5.25 1.64 2 1.65 2.14 4.5h-3.25q-0.11-1.54-1.23-2.46-1.13-0.92-3.02-0.93-1.75 0-2.79 0.75-1.04 0.75-1.04 1.97 0 0.96 0.62 1.59 0.63 0.63 1.57 1 0.95 0.37 2.63 0.84 2.11 0.57 3.43 1.13 1.32 0.55 2.27 1.66 0.95 1.11 0.98 2.89 0 1.61-0.89 2.89-0.89 1.28-2.52 2.02-1.62 0.73-3.73 0.73-2.25 0-4.04-0.77z"/>
		<path class="s0" d="m369.61 453.63l-11.79 28.79h-3.36l3.86-9.43-7.89-19.36h3.61l6.14 15.86 6.07-15.86z"/>
		<path class="s0" d="m375.33 468.7l-4 9.61h-2.18l2.61-9.61z"/>
		<path class="s0" d="m397.52 453.84q1.59 0.86 2.45 2.25v-2.82h6.11v19.89q0 2.74-1.09 4.98-1.09 2.23-3.32 3.55-2.23 1.32-5.55 1.32-4.42 0-7.18-2.09-2.75-2.09-3.14-5.66h6.04q0.28 1.14 1.36 1.8 1.07 0.66 2.64 0.66 1.89 0 3.02-1.09 1.13-1.1 1.13-3.48v-2.82q-0.9 1.39-2.46 2.27-1.56 0.88-3.68 0.88-2.46 0-4.46-1.27-2-1.27-3.16-3.61-1.16-2.34-1.16-5.41 0-3.07 1.16-5.39 1.16-2.33 3.16-3.57 2-1.25 4.46-1.25 2.11-0.01 3.7 0.86zm1.18 5.79q-1.27-1.32-3.09-1.32-1.81 0-3.09 1.3-1.26 1.31-1.27 3.59 0 2.28 1.27 3.62 1.28 1.34 3.09 1.34 1.82 0 3.09-1.32 1.26-1.32 1.27-3.61 0-2.29-1.27-3.61z"/>
		<path class="s0" d="m428.29 464.7h-13.82q0.13 1.86 1.2 2.84 1.06 0.99 2.59 0.98 2.28 0 3.18-1.93h6.5q-0.5 1.97-1.8 3.54-1.31 1.58-3.27 2.46-1.96 0.9-4.39 0.89-2.93 0-5.21-1.25-2.29-1.24-3.57-3.57-1.29-2.32-1.29-5.43 0-3.1 1.27-5.43 1.26-2.32 3.55-3.57 2.28-1.25 5.25-1.25c1.98 0 3.64 0.4 5.14 1.21q2.25 1.21 3.52 3.46 1.26 2.25 1.27 5.25 0 0.86-0.11 1.79zm-6.14-3.4q0-1.57-1.07-2.5-1.07-0.93-2.68-0.93c-1.07 0-1.89 0.3-2.59 0.89q-1.06 0.9-1.3 2.54z"/>
		<path class="s0" d="m441.83 468.02v5.18h-3.11q-3.32 0-5.18-1.63-1.86-1.62-1.86-5.3v-7.93h-2.43v-5.07h2.43v-4.86h6.11v4.86h4v5.07h-4v8q0 0.89 0.43 1.29 0.43 0.39 1.43 0.39z"/>
		<path class="s0" d="m451.45 450.25q-1.02-0.94-1.02-2.34 0-1.41 1.02-2.38 1.01-0.95 2.63-0.95c1.08 0 1.91 0.32 2.59 0.95q1.02 0.94 1.02 2.38c0 0.96-0.34 1.71-1.02 2.34q-1.02 0.95-2.59 0.95c-1.05 0-1.95-0.31-2.63-0.95zm5.66 3.02v19.93h-6.11v-19.93z"/>
		<path class="s0" d="m471.76 468.02v5.18h-3.11q-3.32 0-5.18-1.63-1.86-1.62-1.86-5.3v-7.93h-2.43v-5.07h2.43v-4.86h6.11v4.86h4v5.07h-4v8q0 0.89 0.43 1.29 0.43 0.39 1.43 0.39z"/>
		<path class="s0" d="m484.4 472.59q-2.04-0.89-3.21-2.45-1.19-1.56-1.32-3.48h6.04q0.11 1.04 0.96 1.68 0.85 0.64 2.11 0.64 1.14 0 1.77-0.45 0.63-0.45 0.63-1.16 0-0.85-0.89-1.27-0.9-0.41-2.89-0.91-2.14-0.5-3.57-1.05-1.42-0.55-2.46-1.75-1.04-1.2-1.04-3.23 0-1.71 0.95-3.12 0.95-1.41 2.79-2.23 1.84-0.82 4.37-0.82 3.75 0 5.91 1.86 2.16 1.86 2.48 4.93h-5.64q-0.15-1.04-0.91-1.64-0.77-0.61-2.02-0.61-1.07 0-1.64 0.41-0.57 0.41-0.57 1.13 0 0.85 0.91 1.29 0.91 0.43 2.84 0.86 2.22 0.57 3.61 1.13 1.39 0.55 2.45 1.79 1.05 1.23 1.09 3.3 0 1.75-0.98 3.13-0.99 1.38-2.82 2.16-1.84 0.78-4.27 0.79-2.61 0-4.64-0.89z"/>
		<path class="s0" d="m499.92 457.8q1.16-2.32 3.16-3.57 2-1.25 4.46-1.25 2.1-0.01 3.7 0.86 1.59 0.86 2.45 2.25v-2.82h6.11v19.93h-6.11v-2.82q-0.89 1.39-2.48 2.25-1.59 0.86-3.7 0.86-2.43 0-4.43-1.27-2-1.27-3.16-3.61-1.16-2.34-1.16-5.41 0-3.07 1.16-5.4zm12.5 1.83q-1.28-1.32-3.09-1.32-1.82 0-3.09 1.3-1.27 1.31-1.27 3.59 0 2.28 1.27 3.62 1.27 1.34 3.09 1.34 1.81 0 3.09-1.32 1.26-1.32 1.27-3.61 0-2.29-1.27-3.61z"/>
		<path class="s0" d="m533.33 458.34h-3.29v14.86h-6.11v-14.86h-2.21v-5.07h2.21v-0.57q0-3.68 2.11-5.59 2.1-1.91 6.18-1.91 0.68 0 1 0.04v5.18q-1.76-0.1-2.46 0.5-0.72 0.61-0.71 2.18v0.18h3.29v5.07z"/>
		<path class="s0" d="m553.97 464.7h-13.82q0.14 1.86 1.2 2.84 1.06 0.99 2.59 0.98 2.28 0 3.18-1.93h6.5q-0.5 1.97-1.8 3.54-1.31 1.58-3.27 2.46-1.96 0.9-4.39 0.89-2.93 0-5.21-1.25-2.29-1.24-3.57-3.57-1.29-2.32-1.29-5.43 0-3.1 1.27-5.43 1.27-2.32 3.55-3.57 2.28-1.25 5.25-1.25c1.98 0 3.64 0.4 5.14 1.21q2.25 1.21 3.52 3.46 1.27 2.25 1.27 5.25 0 0.86-0.11 1.79zm-6.14-3.4q0-1.57-1.07-2.5-1.07-0.93-2.68-0.93c-1.07 0-1.89 0.3-2.59 0.89q-1.06 0.9-1.3 2.54z"/>
		<path class="s0" d="m558.6 472.54q-1.02-0.94-1.02-2.34c0-0.93 0.34-1.75 1.02-2.39q1.01-0.96 2.63-0.96c1.08 0 1.91 0.32 2.59 0.96q1.02 0.96 1.02 2.39 0 1.41-1.02 2.34-1.02 0.95-2.59 0.95c-1.05 0-1.95-0.32-2.63-0.95zm5.84-25.31l-0.71 17.11h-5.18l-0.71-17.11c0 0 6.61 0 6.6 0z"/>
	</g>
	<g>
		<path class="s0" d="m422.91 141.14q-3.06 5.16-6.08 10.33c-0.26 0.44-0.59 0.68-1.1 0.69q-6.19 0.16-12.39 0.32-5.12 0.14-10.23 0.25c-0.37 0-0.59 0.12-0.76 0.46-0.31 0.6-0.68 1.17-1.02 1.75q-0.34 0.58-0.7 1.2c0.19 0.04 0.3 0.07 0.41 0.09q9.47 2.08 18.94 4.17c0.95 0.21 1.16 0.7 0.67 1.53q-3.15 5.33-6.28 10.67c-0.28 0.48-0.65 0.68-1.2 0.7q-2.92 0.11-5.85 0.27c-0.16 0-0.39 0.07-0.47 0.19-0.45 0.7-0.87 1.42-1.32 2.18 0.23 0.06 0.38 0.1 0.53 0.14q3.97 0.88 7.93 1.74c0.49 0.11 0.87 0.31 1.2 0.69q2.68 3.06 5.37 6.1c0.12 0.13 0.24 0.25 0.43 0.45 0.41-0.72 0.81-1.38 1.15-2.07 0.09-0.18 0.11-0.49 0.03-0.67q-1.27-2.64-2.59-5.25c-0.25-0.49-0.25-0.9 0.04-1.38q3.14-5.3 6.27-10.62c0.52-0.89 1.03-0.93 1.72-0.15q4.4 4.98 8.79 9.97c1.41 1.6 2.82 3.2 4.29 4.86 0.66-1.12 1.28-2.17 1.88-3.22 0.06-0.1 0.03-0.28-0.03-0.39q-0.47-0.95-0.96-1.88-4.79-9.21-9.58-18.41c-0.21-0.41-0.23-0.8 0.03-1.21q0.56-0.92 1.11-1.87 2.51-4.24 5.01-8.5c0.79-1.34 0.56-2.92-0.55-3.91-1.47-1.32-3.65-0.97-4.69 0.77z"/>
		<path class="s0" d="m378.75 121.3c-1.1 0-1.98-0.89-1.98-1.98v-32.15c0-1.1 0.89-1.98 1.98-1.98 1.09 0 1.98 0.89 1.98 1.98v32.15c0 1.1-0.89 1.98-1.98 1.98z"/>
		<path class="s0" d="m326.93 135.18c-0.69 0-1.35-0.36-1.72-0.99l-16.07-27.84c-0.55-0.95-0.22-2.16 0.73-2.71 0.95-0.55 2.16-0.22 2.71 0.73l16.07 27.84c0.55 0.95 0.22 2.16-0.73 2.71q-0.47 0.27-0.99 0.26z"/>
		<path class="s0" d="m288.98 173.12q-0.52 0-0.99-0.27l-27.84-16.07c-0.95-0.55-1.27-1.76-0.73-2.71 0.55-0.95 1.76-1.28 2.71-0.73l27.84 16.07c0.95 0.55 1.27 1.76 0.73 2.71-0.37 0.64-1.03 0.99-1.72 1z"/>
		<path class="s0" d="m275.1 224.95h-32.15c-1.1 0-1.98-0.89-1.98-1.98 0-1.09 0.89-1.98 1.98-1.98h32.15c1.1 0 1.98 0.89 1.98 1.98 0 1.09-0.89 1.98-1.98 1.98z"/>
		<path class="s0" d="m514.56 224.95h-32.15c-1.1 0-1.98-0.89-1.98-1.98 0-1.09 0.89-1.98 1.98-1.98h32.15c1.1 0 1.98 0.89 1.98 1.98 0 1.09-0.89 1.98-1.98 1.98z"/>
		<path class="s0" d="m468.52 173.12c-0.69 0-1.35-0.36-1.72-0.99-0.55-0.95-0.22-2.16 0.73-2.71l27.84-16.07c0.95-0.55 2.16-0.22 2.71 0.73 0.55 0.95 0.22 2.16-0.73 2.71l-27.84 16.07q-0.47 0.27-0.99 0.26z"/>
		<path class="s0" d="m430.58 135.18q-0.52 0-0.99-0.27c-0.95-0.55-1.27-1.76-0.73-2.71l16.08-27.84c0.55-0.95 1.76-1.28 2.71-0.73 0.95 0.55 1.27 1.76 0.73 2.71l-16.08 27.84c-0.37 0.64-1.03 0.99-1.72 1z"/>
		<path fill-rule="evenodd" class="s0" d="m398.37 185.39l16.07-27.85 3.43 1.99-16.07 27.84z"/>
		<path class="s0" d="m202.01 223.21c0-97.46 79.29-176.75 176.75-176.75 97.46 0 176.75 79.29 176.75 176.75q-0.01 0.87-0.02 1.74h3.97q0.01-0.87 0.02-1.74c0-99.65-81.07-180.71-180.71-180.71-99.64 0-180.71 81.07-180.71 180.71q0.01 0.87 0.02 1.74h3.97q-0.01-0.87-0.02-1.74z"/>
		<path class="s0" d="m244.84 223.21c0-73.84 60.07-133.91 133.91-133.91 73.84 0 133.91 60.07 133.91 133.91 0 0.58-0.04 1.16-0.04 1.74h3.97c0-0.58 0.04-1.15 0.04-1.74 0-76.03-61.85-137.88-137.88-137.88-76.03 0-137.88 61.85-137.88 137.88 0 0.58 0.04 1.16 0.04 1.74h3.97c0-0.58-0.04-1.15-0.04-1.74z"/>
		<path class="s0" d="m339.62 223.21c0-21.58 17.55-39.13 39.13-39.13 21.58 0 39.13 17.55 39.13 39.13 0 0.59-0.06 1.16-0.09 1.74h4.01q0.04-0.86 0.04-1.74c0-23.76-19.33-43.1-43.1-43.1-23.77 0-43.1 19.33-43.1 43.1q0 0.87 0.04 1.74h4.01c-0.03-0.58-0.09-1.15-0.09-1.74z"/>
		<path class="s0" d="m364.57 223.21c0-7.82 6.36-14.18 14.18-14.18 7.82 0 14.18 6.36 14.18 14.18q-0.01 0.88-0.12 1.74h4q0.08-0.85 0.09-1.74c0-10.01-8.14-18.15-18.15-18.15-10.01 0-18.15 8.14-18.15 18.15q0 0.88 0.09 1.74h4q-0.11-0.85-0.12-1.74z"/>
	</g>
	<path fill-rule="evenodd" class="s0" d="m378.75 74.3c-16.31 0-29.5-13.19-29.5-29.5 0-16.31 13.19-29.5 29.5-29.5 16.31 0 29.5 13.19 29.5 29.5 0 16.31-13.19 29.5-29.5 29.5z"/>
	<g>
		<path class="s1" d="m389.3 57.56q1.11 1.62 2.18 3.2 1.68 2.48 3.37 4.95c0.24 0.34 0.38 0.7 0.17 1.08-0.2 0.37-0.57 0.42-0.96 0.42q-1.78-0.01-3.58 0-0.71 0.01-1.09-0.58c-0.32-0.48-0.58-1.13-1.03-1.36-0.48-0.24-1.16-0.08-1.76-0.08q-8.5 0-17.01 0c-0.36 0-0.59 0.09-0.79 0.41q-0.38 0.65-0.87 1.22c-0.17 0.19-0.47 0.38-0.71 0.38q-2 0.06-4.01 0c-0.28-0.01-0.64-0.24-0.8-0.48-0.1-0.15 0.02-0.55 0.16-0.76q2.58-3.82 5.18-7.63 0.11-0.15 0.21-0.33c-0.58-0.37-1.18-0.69-1.7-1.09-2.37-1.83-3.59-4.26-3.6-7.24q-0.03-10.73 0-21.45c0-2.88 1.69-5.03 4.39-5.64 0.47-0.11 0.96-0.14 1.44-0.15q9.77 0 19.52 0c3.06 0 5.25 1.83 5.78 4.82q0.06 0.43 0.05 0.87 0 10.75 0 21.5-0.01 5.02-4.23 7.78-0.13 0.08-0.3 0.21zm-24.93-18.55q-0.01 5.24 0.01 10.48c0 0.7 0.06 1.42 0.23 2.1 0.86 3.36 3.74 5.51 7.36 5.52q6.36 0 12.71 0c0.4 0 0.81 0 1.2-0.07 3.91-0.64 6.48-3.65 6.48-7.61q0-10.58 0-21.16 0.01-0.64-0.13-1.24c-0.46-1.9-1.97-3.05-4.04-3.05q-9.84 0-19.67 0c-0.47 0-0.97 0.06-1.42 0.21-1.74 0.56-2.73 2.05-2.74 4.05q0 5.38 0 10.77zm22.91 24.59c-0.39-0.55-0.71-1.03-1.06-1.49-0.07-0.09-0.25-0.12-0.38-0.12q-7.09 0-14.2 0c-0.12 0-0.29 0.01-0.35 0.09-0.36 0.48-0.7 0.97-1.09 1.52 0 0 17.07 0 17.08 0zm-2.23-3.16c-0.38-0.55-0.7-1.03-1.05-1.48-0.11-0.14-0.33-0.26-0.5-0.26q-4.75-0.02-9.52 0c-0.12 0-0.3 0-0.35 0.08-0.4 0.53-0.78 1.07-1.2 1.67h12.63zm0.72-1.76q0.04 0.1 0.08 0.18 2.28 3.26 4.57 6.52c0.07 0.1 0.22 0.22 0.33 0.23 0.67 0.02 1.34 0.01 2.12 0.01-1.73-2.52-3.4-4.95-5.06-7.36-0.7 0.14-1.35 0.28-2.06 0.43zm-14.06 0.05c-0.64-0.08-1.23-0.12-1.8-0.24-0.3-0.06-0.43 0.04-0.58 0.26q-2.22 3.23-4.46 6.47c-0.09 0.13-0.16 0.26-0.29 0.47 0.67 0 1.26-0.02 1.84 0 0.31 0.01 0.49-0.09 0.67-0.35q2.01-2.91 4.06-5.81 0.26-0.38 0.56-0.81z"/>
		<path class="s1" d="m378.31 27.97q5.15 0 10.29 0c0.76 0 0.98 0.22 0.98 0.97q0 4.22 0 8.45c0 0.54-0.21 0.82-0.69 1.01-4.11 1.63-8.38 2.16-12.77 1.86q-4.29-0.28-8.31-1.78c-0.63-0.23-0.74-0.4-0.74-1.07q0-4.22 0-8.45c0-0.78 0.23-1 1.01-1q5.12 0 10.24 0zm-9.66 1.66q-0.02 0.16-0.03 0.24 0 3.47 0 6.95c0 0.28 0.1 0.38 0.36 0.47q2.87 0.96 5.86 1.31c0.92 0.11 1.85 0.14 2.8 0.21v-9.18zm10.6 9.12c0.1 0.01 0.14 0.02 0.19 0.02q4.23-0.17 8.27-1.47c0.29-0.1 0.41-0.22 0.4-0.53q-0.01-3.38 0-6.76 0-0.19-0.04-0.37h-8.82c0 0 0 9.12 0 9.11z"/>
		<path class="s1" d="m367.24 50.31c0-1.79 1.48-3.26 3.25-3.25 1.79 0.01 3.24 1.48 3.23 3.27 0 1.78-1.48 3.25-3.26 3.25-1.78 0-3.24-1.48-3.22-3.27zm3.25-1.59c-0.94 0-1.7 0.74-1.7 1.67 0 0.93 0.75 1.69 1.68 1.69 0.93 0 1.7-0.76 1.7-1.68 0-0.94-0.73-1.68-1.68-1.68z"/>
		<path class="s1" d="m383.01 50.31c0-1.78 1.47-3.26 3.25-3.25 1.77 0 3.24 1.47 3.24 3.22 0 1.75-1.52 3.3-3.24 3.3-1.78 0-3.24-1.48-3.24-3.26zm3.24 1.77c0.91 0 1.68-0.74 1.69-1.62 0.01-0.93-0.78-1.74-1.69-1.74-0.92 0-1.69 0.77-1.69 1.68 0 0.91 0.78 1.68 1.69 1.68z"/>
	</g>
	<path fill-rule="evenodd" class="s0" d="m559.33 248.7c-16.31 0-29.5-13.19-29.5-29.5 0-16.31 13.19-29.5 29.5-29.5 16.31 0 29.5 13.19 29.5 29.5 0 16.31-13.19 29.5-29.5 29.5z"/>
	<path class="s1" d="m545.97 235.74q-0.7-0.01-1.37 0-0.62 0.02-0.83-0.55-0.73-1.8-1.43-3.61c-0.24-0.63 0.09-1.08 0.77-1.1q0.29 0 0.63 0v-9.77q-0.83 0-1.65 0-1.38 0-2.77 0c-0.49 0-0.81-0.26-0.81-0.72q-0.01-2.66 0-5.3c0-0.45 0.29-0.72 0.75-0.73q1.5-0.01 3 0c0.38 0 0.6 0.22 0.74 0.55 0.33 0.77 0.66 1.54 1.09 2.29q0.12-0.96 0.23-1.92 0.47-4.14 0.92-8.29 0.31-2.73 0.59-5.45c0.13-1.34 1.05-2.2 2.39-2.2q11.32 0 22.63 0c1.34 0 2.25 0.86 2.39 2.2q0.45 4.12 0.91 8.25 0.39 3.58 0.78 7.18c0 0.07 0.02 0.15 0.05 0.33 0.1-0.17 0.17-0.26 0.22-0.35q0.43-1.01 0.87-2.02 0.23-0.56 0.83-0.55 1.41 0.01 2.82 0c0.58 0 0.84 0.27 0.85 0.87q0 2.51 0 5.02c0 0.59-0.27 0.86-0.86 0.86q-2.15 0-4.36 0v9.77q0.32 0 0.67 0c0.59 0.02 0.96 0.47 0.75 1.01q-0.73 1.9-1.51 3.78-0.2 0.48-0.75 0.46c-0.47 0-0.93 0-1.45 0q0 1.42 0 2.79c0 1.57-0.9 2.47-2.47 2.47q-1.38 0-2.77 0c-1.28 0-2.25-0.98-2.26-2.26q0-1.46 0-3h-0.54c-3.04 0-13.62 0-16.66 0-0.59 0-0.94-0.34-0.87-0.85q0.08-0.56 0.64-0.64 0.23-0.02 0.47 0c5.77 0 19.1 0 24.87 0.01 0.45 0 0.66-0.14 0.8-0.55 0.18-0.56 0.42-1.1 0.66-1.69h-30.78c0.28 0.7 0.54 1.4 0.84 2.07 0.05 0.1 0.31 0.15 0.47 0.16q3.52 0 7.04 0c0.81 0 1.02 0.21 1.02 1.03q0 1.71 0 3.43c0 1.34-0.97 2.29-2.31 2.3q-1.48 0-2.96 0c-1.25-0.01-2.22-0.99-2.23-2.24q0-1.43 0-2.86c0-0.03-0.01-0.06-0.03-0.16zm2.39-16.52q0.33 0 0.59 0c5.41 0 14.94 0 20.36 0 0.16 0 0.32-0.02 0.47 0.01q0.58 0.11 0.62 0.71c0.02 0.38-0.24 0.71-0.61 0.77q-0.23 0.02-0.47 0.01c-6.46 0-17.04 0-23.5 0h-0.53v2.26q1.43 0.01 2.81 0c0.4 0 0.68 0.14 0.89 0.48q1.05 1.75 2.09 3.5c0.42 0.72 0.09 1.27-0.74 1.27q-2.28 0-4.55 0-0.25 0-0.5 0v2.22h28.49v-2.22q-0.25 0-0.48 0-2.25 0-4.51 0c-0.36 0-0.69-0.02-0.9-0.37-0.21-0.37-0.06-0.68 0.13-1q1-1.62 1.95-3.26c0.27-0.46 0.6-0.65 1.14-0.63 0.88 0.04 1.77 0.01 2.65 0.01v-2.26q-2.57 0-5.1 0c-0.56 0-0.88-0.28-0.87-0.75 0-0.47 0.32-0.74 0.88-0.75q1 0 2.02 0m1.54-0.03h1.48q-0.18-1.61-0.36-3.18-0.39-3.59-0.79-7.17-0.41-3.66-0.81-7.31c-0.09-0.88-0.29-1.09-1.17-1.09q-11.05 0-22.11 0-0.14 0-0.28 0c-0.45 0.02-0.74 0.22-0.81 0.69q-0.06 0.42-0.1 0.84-0.4 3.61-0.81 7.22-0.36 3.19-0.71 6.38-0.19 1.81-0.4 3.63h1.47m5.19 16.57h-4.51q-0.01 1.49 0 2.94c0 0.48 0.32 0.77 0.82 0.78q1.43 0.01 2.86 0c0.5 0 0.81-0.3 0.82-0.78 0.02-0.97 0-1.94 0.01-2.94zm15.03-0.01q-0.01 1.52 0 2.98c0 0.44 0.31 0.74 0.75 0.75q1.5 0.03 3 0c0.43-0.01 0.72-0.29 0.73-0.71 0.03-1 0-1.99 0-3.01h-4.5zm8.68-16.57h3.3v-3.73c-0.51 0-1-0.02-1.47 0.01-0.13 0-0.3 0.14-0.35 0.26q-0.5 1.11-0.96 2.23-0.25 0.59-0.51 1.22zm-32.38 0c-0.53-1.23-1.03-2.4-1.53-3.57-0.03-0.07-0.12-0.16-0.19-0.16q-0.82-0.01-1.6 0v3.73c0 0 3.33 0 3.32 0zm5.81 7.51c-0.44-0.74-0.85-1.43-1.27-2.12-0.03-0.06-0.12-0.11-0.19-0.11q-1.21 0-2.41 0v2.23zm24.63-2.23q-1.2 0-2.33 0c-0.1 0-0.25 0.07-0.3 0.15q-0.62 1-1.25 2.07h3.89v-2.23z"/>
	<path fill-rule="evenodd" class="s0" d="m198.18 248.7c-16.31 0-29.5-13.19-29.5-29.5 0-16.31 13.19-29.5 29.5-29.5 16.31 0 29.5 13.19 29.5 29.5 0 16.31-13.19 29.5-29.5 29.5z"/>
	<g>
		<path class="s1" d="m216.87 236.69c-1.2-0.05-2.28-0.4-3.26-1.12 1.27-2.8 2.55-5.57 3.8-8.36 1-2.24 0.11-4.42-2.18-5.3-0.37-0.14-0.45-0.32-0.45-0.68q0.01-4.2 0-8.4c0-0.68-0.24-0.91-0.92-0.92q-0.34 0-0.69 0h-3.04c0-0.24 0-0.41 0-0.59q0-3.06 0-6.13c0-0.39-0.08-0.73-0.48-0.88-0.16-0.06-0.36-0.04-0.54-0.04q-1.38 0-2.83 0v-0.61q0-3.02 0-6.03c0-0.84-0.2-1.05-1.04-1.05q-7.31 0-14.62 0c-0.87 0-1.08 0.21-1.08 1.07q0 2.99 0 5.98v0.63q-1.47 0-2.86 0c-0.76 0-0.95 0.2-0.95 0.97q0 3.06 0 6.13v0.54c-1.25 0-2.42 0-3.59 0-0.9 0-1.11 0.2-1.11 1.1 0 2.67-0.02 5.34 0.01 8 0 0.53-0.12 0.79-0.65 1-2.02 0.79-2.9 3.04-2.02 5.02q0.55 1.21 1.11 2.42 1.26 2.77 2.48 5.44c-0.99-0.18-1.96-0.38-2.95-0.52-0.58-0.08-0.94 0.22-0.97 0.67-0.02 0.44 0.32 0.73 0.9 0.75q0.4 0.01 0.79 0.05c1.03 0.11 1.9 0.61 2.75 1.14 1.61 1.01 3.36 1.25 5.21 1 1.28-0.17 2.35-0.81 3.42-1.45 0.81-0.48 1.68-0.7 2.62-0.76 1.5-0.09 2.81 0.37 4.05 1.17 1.13 0.73 2.37 1.08 3.72 1.13 1.75 0.07 3.27-0.52 4.74-1.4 2.11-1.27 4.27-1.23 6.4 0q0.46 0.28 0.94 0.54 1.64 0.9 3.5 0.85c0.39 0 0.68-0.22 0.68-0.57 0-0.26-0.21-0.54-0.4-0.76-0.09-0.1-0.34-0.07-0.52-0.07zm-11.23-29.64c0.49 0 0.61-0.27 0.67-1.38h2.37v6.22h-6.18v-6.18h2.35c0.13 0.52-0.19 1.34 0.78 1.35zm-6.95-9.01h2.35c0.06 0.56-0.15 1.36 0.74 1.34 0.84-0.01 0.64-0.79 0.71-1.36h2.39v6.21h-6.18v-6.2zm-0.74 9.02c0.49-0.01 0.61-0.24 0.74-1.36h2.34v6.2h-6.18v-6.19h2.32c0.15 1.14 0.28 1.37 0.78 1.35zm-6.95-9.03h2.35c0.07 0.56-0.13 1.39 0.77 1.37 0.83-0.02 0.65-0.79 0.72-1.38h2.34v6.23h-6.18v-6.21zm-3.84 7.67h2.34c0.13 0.53-0.16 1.34 0.8 1.35 0.49 0 0.61-0.27 0.68-1.36h2.33v6.19h-6.17v-6.17zm-4.67 7.66h30.88v7.81q-1.73-0.67-3.42-1.32-5.74-2.22-11.48-4.45c-0.38-0.15-0.7-0.15-1.09 0q-7.14 2.77-14.28 5.53-0.3 0.11-0.61 0.21v-7.8zm-2.92 12.81c-0.36-1.29 0.23-2.42 1.49-2.91q4.04-1.57 8.08-3.13 4.19-1.61 8.36-3.23c0.34-0.13 0.61-0.11 0.93 0.01q8.09 3.14 16.17 6.25c1.04 0.4 1.74 1.05 1.81 2.21 0.02 0.24-0.03 0.49-0.05 0.83-1.11-0.43-2.13-0.82-3.15-1.22q-7.37-2.85-14.74-5.71c-0.38-0.15-0.7-0.14-1.08 0q-8.63 3.35-17.27 6.69-0.27 0.1-0.55 0.2zm32.79 8.75c-1.24-0.47-2.47-0.63-3.76-0.5q-1.74 0.17-3.18 1.11c-1.42 0.94-2.95 1.39-4.64 1.06-0.73-0.14-1.45-0.42-2.11-0.76-1.01-0.52-1.96-1.14-3.11-1.33-1.77-0.29-3.46-0.1-5.07 0.76-0.89 0.48-1.8 0.97-2.76 1.27-1.06 0.33-2.19 0.21-3.25-0.14-0.19-0.06-0.41-0.24-0.49-0.42q-1.9-4.12-3.77-8.25c-0.03-0.06-0.04-0.12-0.07-0.24q0.45-0.19 0.89-0.36 8.25-3.2 16.49-6.38c0.19-0.07 0.46-0.11 0.64-0.04q8.62 3.32 17.24 6.66c0.09 0.03 0.17 0.08 0.31 0.15-1.14 2.5-2.25 4.95-3.38 7.41z"/>
		<path class="s1" d="m216.87 240.78q-1.46-0.03-2.72-0.77-0.61-0.36-1.24-0.71c-1.44-0.79-2.99-0.93-4.6-0.75-1.3 0.15-2.39 0.78-3.48 1.42-1.72 1.01-3.53 1.07-5.36 0.37-0.64-0.24-1.22-0.65-1.82-0.99-1.48-0.84-3.07-0.99-4.73-0.8-1.26 0.15-2.34 0.74-3.39 1.39-1.3 0.8-2.7 0.95-4.18 0.75-0.96-0.13-1.77-0.58-2.57-1.08-1.1-0.68-2.28-1.09-3.48-1.13-0.19 0-0.29 0-0.39 0-0.53 0-0.85 0.25-0.86 0.67-0.01 0.41 0.3 0.68 0.82 0.73 0.43 0.04 0.88 0.01 1.27 0.16q1.39 0.56 2.71 1.26c1.61 0.86 3.29 1.05 5.07 0.76 1.15-0.19 2.13-0.75 3.1-1.34 1.43-0.87 2.98-1.08 4.56-0.65 0.92 0.25 1.77 0.77 2.61 1.23 1.6 0.87 3.29 1.06 5.07 0.77 1.18-0.19 2.18-0.79 3.19-1.39 1.37-0.82 2.87-1.03 4.37-0.62 0.96 0.26 1.86 0.8 2.75 1.27q1.6 0.87 3.4 0.86c0.26 0 0.6-0.2 0.76-0.41 0.11-0.14 0.07-0.56-0.07-0.7-0.18-0.18-0.51-0.29-0.78-0.3z"/>
	</g>
</svg>