<svg version="1.2" xmlns="http://www.w3.org/2000/svg" viewBox="0 0 763 494" width="763" height="494">
	<style>
		.s0 { fill: #ffffff } 
		.s1 { fill: #b4b4b4 } 
	</style>
	<g>
		<g>
			<path fill-rule="evenodd" class="s0" d="m296.7 269.82v88.83l-76.36-88.83h-26.58v145.67h35.42v-81.63l69.76 81.63h33.19v-145.67h-35.43z"/>
			<path fill-rule="evenodd" class="s0" d="m671.35 382.97v-113.15h-36.04v145.67h108.87v-32.52h-72.83z"/>
			<path fill-rule="evenodd" class="s0" d="m526.89 269.82l-25.32 44.75-53.66 100.62h37.92l48.26-91.02 47.76 91.02h39.14l-78.1-145.37h-16z"/>
			<path fill-rule="evenodd" class="s0" d="m484.78 269.52h-138.23v35.42h51.52v110.25h35.42v-110.25h51.29v-35.42z"/>
			<path class="s0" d="m100.2 269.83h-13.54l-25.32 44.74-53.6 100.51q-0.21 0.26-0.42 0.51l25.03 19.2c17.84-23.25 48.55-48.93 96.85-42.6l12.42 23h36.68zm-30.4 97l22.56-43.3 19.09 35.62c-14.51 0.26-28.45 2.89-41.65 7.68z"/>
		</g>
		<g>
			<path class="s0" d="m199.96 459.04v2.65h9.94q-0.4 3.72-2.75 5.89-2.37 2.19-6.01 2.19-2.61 0-4.7-1.2-2.09-1.2-3.29-3.41-1.19-2.22-1.19-5.15 0-2.93 1.19-5.17 1.2-2.23 3.29-3.43 2.1-1.19 4.7-1.19 2.61 0 4.58 1.19 1.97 1.2 3 3.38h3.89q-1.39-3.57-4.45-5.54-3.04-1.96-7.02-1.96-3.47 0-6.32 1.62-2.87 1.63-4.53 4.54-1.65 2.91-1.66 6.56 0.01 3.64 1.66 6.54 1.66 2.9 4.53 4.52 2.85 1.62 6.32 1.63 3.29 0 5.97-1.49 2.69-1.48 4.32-4.04 1.65-2.56 1.93-5.62v-2.51z"/>
			<path class="s0" d="m234.63 461.94q0-2.68-1.16-4.81-1.17-2.13-3.31-3.34-2.14-1.21-4.93-1.21c-1.86 0-3.59 0.41-5.06 1.23q-2.19 1.23-3.41 3.52-1.22 2.29-1.22 5.32 0 3.04 1.26 5.35 1.25 2.3 3.44 3.55 2.2 1.26 4.99 1.25 3.5 0 5.86-1.77 2.36-1.77 3.14-4.59h-3.5q-0.57 1.65-1.98 2.63-1.41 0.98-3.52 0.98-2.58 0-4.38-1.62-1.8-1.63-1.98-4.53h15.65q0.11-1.03 0.11-1.96zm-15.73-0.68q0.25-2.79 1.99-4.36 1.73-1.57 4.2-1.57 1.71 0 3.12 0.69 1.41 0.7 2.24 2.04 0.82 1.34 0.82 3.2z"/>
			<path class="s0" d="m247.1 455.58v-2.68h-5.11v-4.93h-3.25v4.93h-2.54v2.68h2.54v11.54q0 2.86 1.36 4.11 1.35 1.26 4.07 1.25h2.93v-2.75h-2.39q-1.51 0-2.11-0.59-0.61-0.59-0.61-2.02v-11.54z"/>
			<path class="s0" d="m261.99 445.93q-0.63-0.64-1.52-0.64-0.93 0-1.58 0.64-0.63 0.64-0.64 1.57 0.01 0.93 0.64 1.57 0.65 0.65 1.58 0.65c0.62 0 1.1-0.22 1.52-0.65q0.62-0.64 0.62-1.57 0-0.93-0.62-1.57zm-3.2 6.97v19.58h3.25v-19.58z"/>
			<path class="s0" d="m275.76 455.58v-2.68h-5.11v-4.93h-3.25v4.93h-2.54v2.68h2.54v11.54q0 2.86 1.36 4.11 1.35 1.26 4.07 1.25h2.93v-2.75h-2.39q-1.5 0-2.11-0.59-0.61-0.59-0.61-2.02v-11.54z"/>
			<path class="s0" d="m305.32 461.94q0-2.68-1.16-4.81-1.17-2.13-3.31-3.34-2.14-1.21-4.93-1.21c-1.86 0-3.59 0.41-5.06 1.23q-2.19 1.23-3.41 3.52-1.22 2.29-1.22 5.32 0 3.04 1.25 5.35 1.26 2.3 3.45 3.55 2.2 1.26 4.99 1.25 3.5 0 5.86-1.77 2.36-1.77 3.14-4.59h-3.5q-0.57 1.65-1.98 2.63-1.42 0.98-3.52 0.98-2.58 0-4.38-1.62-1.8-1.63-1.98-4.53h15.65q0.11-1.03 0.11-1.96zm-15.73-0.68q0.25-2.79 1.99-4.36 1.73-1.57 4.19-1.57 1.72 0 3.13 0.69 1.41 0.7 2.24 2.04 0.81 1.34 0.82 3.2z"/>
			<path class="s0" d="m324.08 452.9v3.57q-0.93-1.68-2.83-2.79-1.89-1.1-4.46-1.1c-1.71 0-3.32 0.41-4.74 1.25q-2.13 1.24-3.34 3.52-1.21 2.27-1.21 5.27c0 2 0.4 3.74 1.21 5.29q1.22 2.32 3.33 3.61 2.1 1.28 4.71 1.28c1.74 0 3.18-0.37 4.45-1.12q1.92-1.13 2.88-2.84v3.64h3.29v-19.58zm-0.9 13.63q-0.89 1.66-2.41 2.54-1.51 0.87-3.34 0.87-1.82 0-3.32-0.87-1.5-0.88-2.4-2.54-0.89-1.66-0.89-3.91 0-2.24 0.89-3.86 0.9-1.65 2.4-2.5 1.5-0.87 3.32-0.86 1.82 0 3.34 0.87 1.52 0.88 2.41 2.52 0.9 1.65 0.9 3.86 0 2.21-0.9 3.88z"/>
			<path class="s0" d="m345.07 464.26q-0.94-1.11-2.27-1.66-1.32-0.55-3.43-1.13-1.68-0.46-2.62-0.84-0.95-0.37-1.57-1-0.63-0.62-0.63-1.59 0-1.21 1.04-1.96 1.04-0.75 2.78-0.75 1.9 0 3.02 0.93 1.13 0.93 1.24 2.46h3.25q-0.14-2.85-2.15-4.5-1.99-1.65-5.25-1.64-2.11 0-3.75 0.73-1.64 0.73-2.54 1.98-0.89 1.25-0.89 2.75 0 1.9 0.98 3.06 0.99 1.16 2.36 1.75 1.38 0.59 3.55 1.16 2.4 0.61 3.54 1.23 1.15 0.63 1.15 1.92c0 0.86-0.36 1.52-1.08 2.07q-1.07 0.82-2.93 0.82-2 0-3.23-0.93-1.23-0.93-1.38-2.39h-3.35q0.1 1.78 1.14 3.16 1.04 1.38 2.82 2.14 1.79 0.77 4.04 0.77 2.1 0 3.73-0.73 1.63-0.73 2.52-2.02 0.9-1.29 0.9-2.89-0.04-1.79-0.99-2.9z"/>
			<path class="s0" d="m363.25 452.9l-6.08 15.86-6.14-15.86h-3.61l7.89 19.37-3.86 9.43h3.36l11.8-28.8z"/>
			<path class="s0" d="m368.75 467.98l-2.61 9.61h2.18l4-9.61z"/>
			<path class="s0" d="m396.98 452.54v2.82q-0.86-1.39-2.45-2.25-1.59-0.86-3.7-0.86-2.46 0-4.46 1.25-2 1.26-3.17 3.58-1.16 2.33-1.16 5.39 0 3.07 1.16 5.42 1.16 2.34 3.17 3.61 2 1.26 4.46 1.27 2.12 0 3.68-0.88 1.58-0.87 2.47-2.27v2.83q0 2.39-1.12 3.48-1.13 1.09-3.02 1.09-1.57 0-2.65-0.66-1.07-0.66-1.36-1.81h-6.04q0.4 3.59 3.15 5.67 2.75 2.09 7.18 2.09 3.33 0 5.56-1.32 2.24-1.32 3.32-3.56 1.09-2.23 1.09-4.98v-19.91zm-1.27 13.58q-1.26 1.32-3.09 1.32-1.82 0.01-3.09-1.34-1.27-1.33-1.27-3.63 0-2.29 1.27-3.59 1.28-1.3 3.09-1.3 1.82 0 3.09 1.32 1.27 1.33 1.27 3.61 0 2.29-1.27 3.61z"/>
			<path class="s0" d="m425.43 462.19q-0.01-3-1.27-5.25-1.27-2.26-3.52-3.47-2.25-1.22-5.15-1.22c-1.93 0-3.73 0.42-5.25 1.25q-2.29 1.26-3.56 3.58-1.26 2.32-1.27 5.43 0 3.11 1.29 5.43 1.29 2.32 3.58 3.58 2.28 1.25 5.21 1.25 2.43 0 4.4-0.9 1.97-0.88 3.27-2.46 1.31-1.58 1.8-3.54h-6.5q-0.9 1.93-3.18 1.93-1.54 0-2.59-0.98-1.06-0.99-1.2-2.84h13.83q0.11-0.93 0.11-1.79zm-13.9-1.61q0.24-1.64 1.3-2.54 1.05-0.89 2.59-0.89 1.61 0 2.68 0.93 1.07 0.93 1.07 2.5z"/>
			<path class="s0" d="m436.68 467.3q-0.99 0-1.43-0.39-0.42-0.4-0.42-1.29v-8.01h4v-5.07h-4v-4.86h-6.11v4.86h-2.43v5.07h2.43v7.94q-0.01 3.68 1.85 5.3 1.86 1.63 5.19 1.63h3.1v-5.18z"/>
			<path class="s0" d="m453.71 444.8q-1.01-0.94-2.59-0.94-1.59 0-2.62 0.94-1.02 0.95-1.02 2.38 0 1.41 1.02 2.34 1.02 0.95 2.62 0.95 1.6 0 2.59-0.95 1.02-0.94 1.02-2.34c0-0.93-0.34-1.75-1.02-2.38zm-5.66 7.74v19.94h6.11v-19.94z"/>
			<path class="s0" d="m466.63 467.3q-0.99 0-1.43-0.39-0.43-0.4-0.43-1.29v-8.01h4.01v-5.07h-4.01v-4.86h-6.11v4.86h-2.43v5.07h2.43v7.94q0 3.68 1.86 5.3 1.86 1.63 5.18 1.63h3.11v-5.18z"/>
			<path class="s0" d="m493.1 463.39q-1.06-1.24-2.45-1.79-1.39-0.55-3.61-1.13-1.94-0.43-2.84-0.85-0.91-0.43-0.91-1.29 0-0.71 0.57-1.13 0.57-0.41 1.64-0.41 1.26 0.01 2.02 0.61 0.77 0.61 0.91 1.64h5.65q-0.32-3.06-2.48-4.93-2.17-1.86-5.92-1.86-2.53 0-4.38 0.83-1.83 0.82-2.78 2.23-0.95 1.41-0.95 3.13 0 2.03 1.03 3.23 1.05 1.2 2.47 1.75 1.43 0.55 3.57 1.06 2.01 0.49 2.9 0.91 0.89 0.4 0.89 1.27 0 0.71-0.62 1.16-0.63 0.45-1.77 0.44-1.26 0-2.11-0.64-0.85-0.64-0.97-1.68h-6.03q0.13 1.93 1.32 3.49 1.18 1.55 3.21 2.44 2.04 0.9 4.65 0.9 2.43 0 4.27-0.79 1.84-0.78 2.82-2.16 0.99-1.38 0.99-3.13-0.04-2.07-1.09-3.3z"/>
			<path class="s0" d="m510.77 452.54v2.82q-0.86-1.39-2.45-2.25-1.59-0.86-3.7-0.86-2.46 0-4.47 1.25-2 1.26-3.16 3.58-1.16 2.33-1.16 5.39 0 3.07 1.16 5.42 1.16 2.34 3.16 3.61 2 1.26 4.44 1.27 2.1 0 3.69-0.86 1.59-0.86 2.49-2.25v2.82h6.11v-19.94zm-1.27 13.58q-1.27 1.32-3.09 1.32-1.82 0.01-3.09-1.34-1.27-1.34-1.27-3.63 0-2.29 1.27-3.59 1.26-1.3 3.09-1.3 1.82 0 3.09 1.32 1.27 1.33 1.27 3.61 0 2.29-1.27 3.61z"/>
			<path class="s0" d="m527.14 452.54v-0.18q0-1.57 0.71-2.18 0.72-0.6 2.47-0.5v-5.18q-0.32-0.03-1.01-0.04-4.06 0-6.18 1.92-2.1 1.9-2.11 5.59v0.57h-2.21v5.07h2.21v14.87h6.12v-14.87h3.28v-5.07z"/>
			<path class="s0" d="m551.19 462.19q0-3-1.27-5.25-1.27-2.26-3.52-3.47-2.25-1.22-5.15-1.22c-1.93 0-3.73 0.42-5.25 1.25q-2.29 1.26-3.56 3.58-1.26 2.32-1.27 5.43 0 3.11 1.29 5.43 1.29 2.32 3.57 3.58 2.3 1.25 5.22 1.25 2.43 0 4.4-0.9 1.97-0.88 3.27-2.46 1.31-1.58 1.8-3.54h-6.5q-0.9 1.93-3.18 1.93-1.54 0-2.59-0.98-1.06-0.99-1.2-2.84h13.83q0.11-0.93 0.11-1.79zm-13.91-1.61q0.26-1.64 1.31-2.54 1.05-0.89 2.59-0.89 1.61 0 2.68 0.93 1.07 0.93 1.07 2.5z"/>
			<path class="s0" d="m560.92 467.09q-1.01-0.97-2.59-0.97-1.59 0-2.62 0.97-1.02 0.96-1.02 2.39 0 1.41 1.02 2.34 1.02 0.95 2.62 0.95 1.59 0 2.59-0.95 1.02-0.94 1.02-2.34c0-0.93-0.34-1.75-1.02-2.39zm-5.98-20.59l0.71 17.12h5.19l0.71-17.12z"/>
		</g>
		<g>
			<path class="s0" d="m419.93 140.22q-3.06 5.16-6.09 10.34c-0.26 0.45-0.59 0.68-1.1 0.69q-6.2 0.16-12.4 0.32-5.11 0.14-10.24 0.25c-0.37 0-0.59 0.12-0.76 0.46-0.31 0.6-0.68 1.17-1.02 1.75q-0.34 0.58-0.71 1.2c0.19 0.04 0.3 0.07 0.41 0.09q9.48 2.08 18.95 4.18c0.95 0.21 1.16 0.7 0.67 1.53q-3.15 5.33-6.28 10.68c-0.28 0.48-0.65 0.68-1.2 0.7q-2.92 0.11-5.85 0.27c-0.16 0-0.39 0.07-0.47 0.19-0.45 0.7-0.87 1.42-1.32 2.18 0.23 0.06 0.38 0.1 0.53 0.14 2.65 0.58 5.29 1.18 7.94 1.74 0.49 0.11 0.87 0.31 1.2 0.69q2.68 3.06 5.37 6.1c0.12 0.13 0.24 0.25 0.43 0.45 0.41-0.72 0.81-1.38 1.15-2.07 0.09-0.18 0.11-0.49 0.03-0.67q-1.27-2.64-2.6-5.25c-0.25-0.49-0.25-0.9 0.04-1.38q3.14-5.31 6.27-10.63c0.53-0.89 1.03-0.93 1.72-0.15q4.39 4.98 8.8 9.98c1.41 1.6 2.82 3.2 4.29 4.87 0.66-1.12 1.28-2.17 1.88-3.22 0.06-0.1 0.03-0.28-0.03-0.39q-0.47-0.95-0.96-1.88-4.79-9.21-9.59-18.42c-0.21-0.41-0.23-0.8 0.03-1.21 0.39-0.61 0.74-1.24 1.11-1.87q2.51-4.25 5.01-8.51c0.79-1.34 0.56-2.92-0.55-3.91-1.47-1.32-3.65-0.97-4.69 0.77z"/>
			<path class="s0" d="m375.75 120.36c-1.1 0-1.99-0.89-1.99-1.99v-32.17c0-1.1 0.89-1.99 1.99-1.99 1.1 0 1.99 0.89 1.99 1.99v32.17c0 1.1-0.89 1.99-1.99 1.99z"/>
			<path class="s0" d="m323.9 134.26c-0.69 0-1.35-0.36-1.72-0.99l-16.08-27.86c-0.55-0.95-0.22-2.16 0.73-2.71 0.95-0.55 2.16-0.22 2.71 0.73l16.08 27.86c0.55 0.95 0.22 2.16-0.73 2.71q-0.47 0.27-0.99 0.26z"/>
			<path class="s0" d="m285.93 172.22q-0.52 0-0.99-0.27l-27.86-16.08c-0.95-0.55-1.27-1.76-0.73-2.71 0.55-0.95 1.76-1.28 2.71-0.73l27.86 16.08c0.95 0.55 1.27 1.76 0.73 2.71-0.37 0.64-1.04 0.99-1.72 1z"/>
			<path class="s0" d="m272.04 224.08h-32.17c-1.1 0-1.99-0.89-1.99-1.99 0-1.1 0.89-1.99 1.99-1.99h32.17c1.1 0 1.99 0.89 1.99 1.99 0 1.1-0.89 1.99-1.99 1.99z"/>
			<path class="s0" d="m511.64 224.08h-32.17c-1.1 0-1.99-0.89-1.99-1.99 0-1.1 0.89-1.99 1.99-1.99h32.17c1.1 0 1.99 0.89 1.99 1.99 0 1.1-0.89 1.99-1.99 1.99z"/>
			<path class="s0" d="m465.58 172.22c-0.69 0-1.35-0.36-1.72-0.99-0.55-0.95-0.22-2.16 0.73-2.71l27.86-16.08c0.95-0.55 2.16-0.22 2.71 0.73 0.55 0.95 0.22 2.16-0.73 2.71l-27.86 16.08q-0.47 0.27-0.99 0.26z"/>
			<path class="s0" d="m427.61 134.26q-0.52 0-0.99-0.27c-0.95-0.55-1.27-1.76-0.73-2.71l16.09-27.86c0.55-0.95 1.76-1.28 2.71-0.73 0.95 0.55 1.27 1.76 0.73 2.71l-16.09 27.86c-0.37 0.64-1.04 0.99-1.72 1z"/>
			<path fill-rule="evenodd" class="s0" d="m395.36 184.49l16.08-27.86 3.44 1.98-16.08 27.87z"/>
			<path class="s0" d="m197.92 211.02h-2.64q0.19-3.12 0.5-6.21h2.14z"/>
			<path class="s0" d="m198.9 222.34q0 0.87 0.02 1.74h-3.97q-0.02-0.87-0.02-1.74 0-1.28 0.01-2.55 0.08 0 0.14 0.03 1.91 0.73 3.82 1.48z"/>
			<path class="s0" d="m198.97 217.45q-0.03 1.17-0.05 2.34-1.78-0.69-3.56-1.38-0.21-0.08-0.38-0.09 0.01-1.18 0.06-2.36 0.13 0.02 0.28 0.07 1.82 0.71 3.65 1.42z"/>
			<path class="s0" d="m199.17 212.49q-0.1 1.73-0.15 3.47-1.83-0.71-3.66-1.42-0.13-0.05-0.26-0.08 0.04-0.99 0.1-1.97z"/>
			<path class="s0" d="m199.4 204.82h0.36q-0.21 2.1-0.36 4.21z"/>
			<path class="s0" d="m199.38 197.15h1.31q-0.45 3.09-0.78 6.21h-3.99q0.33-3.12 0.76-6.2h1.25c0.06 0.56-0.14 1.36 0.74 1.35 0.84-0.02 0.64-0.8 0.71-1.36z"/>
			<path class="s0" d="m359.64 42.24q0 1.99 0.01 3.98-6.63 0.6-13.12 1.68c-72.98 12.19-130.97 69.22-144.59 141.72q-0.57 3.02-1.04 6.08h-4.01q0.5-3.39 1.13-6.74c13.91-74.27 73.39-132.7 148.22-145.03q6.62-1.1 13.4-1.69z"/>
			<path class="s0" d="m375.75 41.52q6.88 0 13.63 0.51 0 1.99-0.01 3.98-6.75-0.52-13.62-0.52-7.26 0-14.38 0.58-0.01-2-0.01-3.99 7.13-0.56 14.39-0.56z"/>
			<path class="s0" d="m554.96 198.05h-4.01q-0.59-4.25-1.38-8.43c-13.61-72.49-71.61-129.53-144.59-141.72q-6.99-1.16-14.14-1.77v-3.98q7.31 0.6 14.43 1.78c74.82 12.33 134.3 70.76 148.22 145.03q0.84 4.5 1.47 9.09z"/>
			<path class="s0" d="m556.53 218.32h-3.97q-0.22-9.53-1.41-18.77h4q1.18 9.25 1.38 18.77z"/>
			<path class="s0" d="m556.58 222.34q-0.01 0.87-0.02 1.74h-3.98q0.02-0.87 0.03-1.74 0-1.25-0.02-2.5h3.97q0.02 1.25 0.02 2.5z"/>
			<path class="s0" d="m241.76 222.34c0-73.89 60.11-134 134-134 73.89 0 133.99 60.11 133.99 134 0 0.58-0.04 1.16-0.04 1.74h3.97c0-0.58 0.04-1.16 0.04-1.74 0-76.08-61.89-137.97-137.97-137.97-76.08 0-137.97 61.89-137.97 137.97 0 0.58 0.04 1.16 0.04 1.74h3.97c0-0.58-0.04-1.16-0.03-1.74z"/>
			<path class="s0" d="m336.6 222.34c0-21.59 17.56-39.15 39.15-39.15 21.59 0 39.15 17.56 39.15 39.15 0 0.59-0.06 1.16-0.09 1.74h4.02q0.03-0.87 0.04-1.74c0-23.78-19.35-43.12-43.12-43.12-23.77 0-43.12 19.35-43.12 43.12q0 0.87 0.04 1.74h4.02c-0.03-0.58-0.09-1.15-0.09-1.74z"/>
			<path class="s0" d="m361.56 222.34c0-7.83 6.37-14.19 14.19-14.19 7.82 0 14.19 6.37 14.19 14.19q-0.01 0.88-0.12 1.74h4q0.08-0.86 0.09-1.74c0-10.02-8.15-18.16-18.16-18.16-10.01 0-18.16 8.15-18.16 18.16q0 0.88 0.09 1.74h4q-0.11-0.86-0.12-1.74z"/>
		</g>
		<path class="s0" d="m365.65 28.64h8.99v9.18c-0.96-0.07-1.89-0.1-2.81-0.21q-2.99-0.35-5.86-1.31c-0.26-0.09-0.36-0.19-0.36-0.47q0.01-3.48 0.01-6.95 0-0.08 0.03-0.24z"/>
		<path class="s0" d="m376.44 37.79c0 0-0.09-0.01-0.19-0.02v-9.12h8.83q0.03 0.18 0.04 0.37-0.01 3.38 0.01 6.76c0 0.32-0.12 0.44-0.41 0.53q-4.04 1.31-8.28 1.48z"/>
		<path class="s0" d="m375.75 14.3c-16.3 0-29.51 13.21-29.51 29.52v0.11q0.01 2.02 0.29 3.97c1.98 14.37 14.3 25.43 29.22 25.43 14.92 0 27.25-11.06 29.23-25.43q0.28-1.95 0.29-3.97v-0.11c0-16.31-13.22-29.52-29.52-29.52zm15.09 34.3c0 3.35-1.44 5.94-4.23 7.78q-0.13 0.08-0.3 0.21 1.09 1.62 2.18 3.2 1.68 2.48 3.37 4.95c0.24 0.34 0.38 0.69 0.18 1.08-0.2 0.37-0.58 0.41-0.97 0.41q-1.78-0.01-3.58 0c-0.48 0.01-0.82-0.17-1.09-0.57-0.32-0.49-0.57-1.13-1.03-1.37-0.48-0.24-1.17-0.08-1.76-0.08q-8.51 0-17.02 0c-0.36 0-0.6 0.09-0.79 0.41q-0.37 0.65-0.86 1.22c-0.17 0.19-0.47 0.38-0.72 0.38q-2 0.07-4.01 0c-0.28 0-0.64-0.25-0.8-0.49-0.1-0.15 0.02-0.55 0.16-0.76q2.57-3.82 5.18-7.63l0.21-0.33c-0.58-0.37-1.18-0.69-1.71-1.1-2.37-1.82-3.59-4.26-3.6-7.25v-2.43q-0.01-1.99-0.01-3.98-0.01-7.53 0.01-15.05c0-2.88 1.69-5.03 4.39-5.65q0.71-0.15 1.44-0.14 9.76-0.01 19.53-0.01c3.06 0 5.25 1.83 5.78 4.82q0.06 0.43 0.05 0.87c0 0 0 21.52 0 21.51zm-23.94 8.91c-0.3-0.06-0.42 0.05-0.57 0.27q-2.24 3.24-4.46 6.47c-0.09 0.12-0.17 0.26-0.3 0.47 0.67 0 1.26-0.02 1.85 0.01 0.3 0.01 0.49-0.09 0.67-0.35q2.02-2.91 4.06-5.81 0.27-0.38 0.56-0.81c-0.64-0.08-1.23-0.13-1.81-0.25zm14.1 0.48c-0.11-0.14-0.33-0.26-0.5-0.26q-4.76-0.01-9.52-0.01c-0.12 0-0.3 0.01-0.36 0.08-0.4 0.53-0.77 1.08-1.2 1.67h12.64c-0.39-0.55-0.7-1.03-1.06-1.48zm2.22 3.16c-0.07-0.09-0.25-0.12-0.38-0.12q-7.1-0.01-14.2 0c-0.12 0-0.29 0.01-0.35 0.09-0.36 0.47-0.7 0.97-1.09 1.52h17.08c-0.39-0.56-0.71-1.04-1.06-1.49zm6.15-33.87q0.01-0.64-0.13-1.25c-0.46-1.9-1.97-3.05-4.04-3.05q-9.84-0.02-19.68 0.01c-0.47 0-0.97 0.06-1.42 0.2-1.74 0.56-2.74 2.06-2.74 4.05v14.84q0 2 0.01 3.99-0.01 1.23 0 2.44c0 0.71 0.06 1.43 0.23 2.1 0.87 3.37 3.75 5.52 7.36 5.52q6.36 0 12.72 0c0.4 0 0.81 0 1.2-0.06 3.92-0.64 6.49-3.65 6.49-7.62v-2.44q0.01-1.99 0.01-3.98 0-7.38-0.01-14.75zm-27.77 23.33c0.87 3.37 3.75 5.52 7.36 5.52q6.36 0 12.72 0c0.4 0 0.81 0 1.2-0.06 3.92-0.64 6.49-3.65 6.49-7.62v-2.44q0.01-1.99 0.01-3.98 0-7.38-0.01-14.75 0.01-0.64-0.13-1.25c-0.46-1.9-1.97-3.05-4.04-3.05q-9.84-0.02-19.68 0.01c-0.47 0-0.97 0.06-1.42 0.2-1.74 0.56-2.74 2.06-2.74 4.05v14.84q0 2 0.01 3.99-0.01 1.23 0 2.44c0 0.71 0.06 1.43 0.23 2.1zm27.77-23.33q0.01-0.64-0.13-1.25c-0.46-1.9-1.97-3.05-4.04-3.05q-9.84-0.02-19.68 0.01c-0.47 0-0.97 0.06-1.42 0.2-1.74 0.56-2.74 2.06-2.74 4.05v14.84q0 2 0.01 3.99-0.01 1.23 0 2.44c0 0.71 0.06 1.43 0.23 2.1 0.87 3.37 3.75 5.52 7.36 5.52q6.36 0 12.72 0c0.4 0 0.81 0 1.2-0.06 3.92-0.64 6.49-3.65 6.49-7.62v-2.44q0.01-1.99 0.01-3.98 0-7.38-0.01-14.75zm-0.13-1.25c-0.46-1.9-1.97-3.05-4.04-3.05q-9.84-0.02-19.68 0.01c-0.47 0-0.97 0.06-1.42 0.2-1.74 0.56-2.74 2.06-2.74 4.05v14.84q0 2 0.01 3.99-0.01 1.23 0 2.44c0 0.71 0.06 1.43 0.23 2.1 0.87 3.37 3.75 5.52 7.36 5.52q6.36 0 12.72 0c0.4 0 0.81 0 1.2-0.06 3.92-0.64 6.49-3.65 6.49-7.62v-2.44q0.01-1.99 0.01-3.98 0-7.38-0.01-14.75 0.01-0.64-0.13-1.25zm0.13 1.25q0.01-0.64-0.13-1.25c-0.46-1.9-1.97-3.05-4.04-3.05q-9.84-0.02-19.68 0.01c-0.47 0-0.97 0.06-1.42 0.2-1.74 0.56-2.74 2.06-2.74 4.05v14.84q0 2 0.01 3.99-0.01 1.23 0 2.44c0 0.71 0.06 1.43 0.23 2.1 0.87 3.37 3.75 5.52 7.36 5.52q6.36 0 12.72 0c0.4 0 0.81 0 1.2-0.06 3.92-0.64 6.49-3.65 6.49-7.62v-2.44q0.01-1.99 0.01-3.98 0-7.38-0.01-14.75zm0 0q0.01-0.64-0.13-1.25c-0.46-1.9-1.97-3.05-4.04-3.05q-9.84-0.02-19.68 0.01c-0.47 0-0.97 0.06-1.42 0.2-1.74 0.56-2.74 2.06-2.74 4.05v14.84q0 2 0.01 3.99-0.01 1.23 0 2.44c0 0.71 0.06 1.43 0.23 2.1 0.87 3.37 3.75 5.52 7.36 5.52q6.36 0 12.72 0c0.4 0 0.81 0 1.2-0.06 3.92-0.64 6.49-3.65 6.49-7.62v-2.44q0.01-1.99 0.01-3.98 0-7.38-0.01-14.75zm0 0q0.01-0.64-0.13-1.25c-0.46-1.9-1.97-3.05-4.04-3.05q-9.84-0.02-19.68 0.01c-0.47 0-0.97 0.06-1.42 0.2-1.74 0.56-2.74 2.06-2.74 4.05v14.84q0 2 0.01 3.99-0.01 1.23 0 2.44c0 0.71 0.06 1.43 0.23 2.1 0.87 3.37 3.75 5.52 7.36 5.52q6.36 0 12.72 0c0.4 0 0.81 0 1.2-0.06 3.92-0.64 6.49-3.65 6.49-7.62v-2.44q0.01-1.99 0.01-3.98 0-7.38-0.01-14.75zm0 0q0.01-0.64-0.13-1.25c-0.46-1.9-1.97-3.05-4.04-3.05q-9.84-0.02-19.68 0.01c-0.47 0-0.97 0.06-1.42 0.2-1.74 0.56-2.74 2.06-2.74 4.05v14.84q0 2 0.01 3.99 7.12-0.57 14.38-0.58 6.87 0.01 13.62 0.52 0.01-1.99 0.01-3.98 0-7.38-0.01-14.75zm-21.91 25.32c-1.78 0-3.24-1.48-3.23-3.27 0-1.79 1.48-3.26 3.26-3.25 1.78 0.02 3.23 1.48 3.23 3.28 0 1.8-1.48 3.25-3.26 3.24zm15.8 0c-1.78 0.01-3.25-1.47-3.25-3.26 0-1.79 1.48-3.26 3.26-3.26 1.76 0.01 3.24 1.48 3.23 3.22 0 1.75-1.52 3.3-3.24 3.3zm0 0c-1.78 0.01-3.25-1.47-3.25-3.26 0-1.79 1.48-3.26 3.26-3.26 1.76 0.01 3.24 1.48 3.23 3.22 0 1.75-1.52 3.3-3.24 3.3zm-15.8 0c-1.78 0-3.24-1.48-3.23-3.27 0-1.79 1.48-3.26 3.26-3.25 1.78 0.02 3.23 1.48 3.23 3.28 0 1.8-1.48 3.25-3.26 3.24zm0 0c-1.78 0-3.24-1.48-3.23-3.27 0-1.79 1.48-3.26 3.26-3.25 1.78 0.02 3.23 1.48 3.23 3.28 0 1.8-1.48 3.25-3.26 3.24zm15.8 0c-1.78 0.01-3.25-1.47-3.25-3.26 0-1.79 1.48-3.26 3.26-3.26 1.76 0.01 3.24 1.48 3.23 3.22 0 1.75-1.52 3.3-3.24 3.3zm0 0c-1.78 0.01-3.25-1.47-3.25-3.26 0-1.79 1.48-3.26 3.26-3.26 1.76 0.01 3.24 1.48 3.23 3.22 0 1.75-1.52 3.3-3.24 3.3zm-15.8 0c-1.78 0-3.24-1.48-3.23-3.27 0-1.79 1.48-3.26 3.26-3.25 1.78 0.02 3.23 1.48 3.23 3.28 0 1.8-1.48 3.25-3.26 3.24zm15.31 5.11q0.05 0.1 0.09 0.18 2.28 3.26 4.57 6.52c0.08 0.1 0.22 0.22 0.34 0.22 0.67 0.02 1.34 0 2.12 0-1.73-2.52-3.4-4.95-5.06-7.36-0.7 0.15-1.35 0.28-2.06 0.44zm2.06-0.43c-0.7 0.15-1.35 0.28-2.06 0.43q0.05 0.1 0.09 0.18 2.28 3.26 4.57 6.52c0.08 0.1 0.22 0.22 0.34 0.22 0.67 0.02 1.34 0 2.12 0-1.73-2.52-3.4-4.95-5.06-7.35zm-17.37-4.68c-1.78 0-3.24-1.48-3.23-3.27 0-1.79 1.48-3.26 3.26-3.25 1.78 0.02 3.23 1.48 3.23 3.28 0 1.8-1.48 3.25-3.26 3.24zm15.8 0c-1.78 0.01-3.25-1.47-3.25-3.26 0-1.79 1.48-3.26 3.26-3.26 1.76 0.01 3.24 1.48 3.23 3.22 0 1.75-1.52 3.3-3.24 3.3zm0 0c-1.78 0.01-3.25-1.47-3.25-3.26 0-1.79 1.48-3.26 3.26-3.26 1.76 0.01 3.24 1.48 3.23 3.22 0 1.75-1.52 3.3-3.24 3.3zm-15.8 0c-1.78 0-3.24-1.48-3.23-3.27 0-1.79 1.48-3.26 3.26-3.25 1.78 0.02 3.23 1.48 3.23 3.28 0 1.8-1.48 3.25-3.26 3.24zm21.91-25.32q0.01-0.64-0.13-1.25c-0.46-1.9-1.97-3.05-4.04-3.05q-9.84-0.02-19.68 0.01c-0.47 0-0.97 0.06-1.42 0.2-1.74 0.56-2.74 2.06-2.74 4.05v14.84q0 2 0.01 3.99 7.12-0.57 14.38-0.58 6.87 0.01 13.62 0.52 0.01-1.99 0.01-3.98 0-7.38-0.01-14.75zm-25.31 0.71c0-0.78 0.22-1 1.01-1q5.12-0.01 10.24 0c3.41 0 6.87-0.01 10.3 0 0.76 0 0.97 0.21 0.98 0.97q-0.01 4.23 0 8.46c0 0.53-0.21 0.81-0.69 1.01-4.12 1.63-8.39 2.15-12.78 1.86q-4.29-0.29-8.32-1.78c-0.63-0.24-0.74-0.4-0.74-1.07zm3.4 24.61c-1.78 0-3.24-1.48-3.23-3.27 0-1.79 1.48-3.26 3.26-3.25 1.78 0.02 3.23 1.48 3.23 3.28 0 1.8-1.48 3.25-3.26 3.24zm15.8 0c-1.78 0.01-3.25-1.47-3.25-3.26 0-1.79 1.48-3.26 3.26-3.26 1.76 0.01 3.24 1.48 3.23 3.22 0 1.75-1.52 3.3-3.24 3.3zm-0.01-4.86c-0.92 0-1.69 0.77-1.69 1.68 0 0.91 0.77 1.68 1.7 1.68 0.93 0 1.68-0.74 1.69-1.62 0.01-0.93-0.78-1.74-1.7-1.74zm-15.76 0c-0.95 0-1.7 0.74-1.71 1.67 0 0.94 0.75 1.69 1.69 1.69 0.94 0 1.7-0.76 1.71-1.68 0-0.95-0.74-1.68-1.69-1.68zm0 0c-0.95 0-1.7 0.74-1.71 1.67 0 0.94 0.75 1.69 1.69 1.69 0.94 0 1.7-0.76 1.71-1.68 0-0.95-0.74-1.68-1.69-1.68zm15.76 0c-0.92 0-1.69 0.77-1.69 1.68 0 0.91 0.77 1.68 1.7 1.68 0.93 0 1.68-0.74 1.69-1.62 0.01-0.93-0.78-1.74-1.7-1.74zm0 0c-0.92 0-1.69 0.77-1.69 1.68 0 0.91 0.77 1.68 1.7 1.68 0.93 0 1.68-0.74 1.69-1.62 0.01-0.93-0.78-1.74-1.7-1.74zm-0.03 13.41c-0.07-0.09-0.25-0.12-0.38-0.12q-7.1-0.01-14.2 0c-0.12 0-0.29 0.01-0.35 0.09-0.36 0.47-0.7 0.97-1.09 1.52h17.08c-0.39-0.56-0.71-1.04-1.06-1.49zm-2.22-3.16c-0.11-0.14-0.33-0.26-0.5-0.26q-4.76-0.01-9.52-0.01c-0.12 0-0.3 0.01-0.36 0.08-0.4 0.53-0.77 1.08-1.2 1.67h12.64c-0.39-0.55-0.7-1.03-1.06-1.48zm-14.1-0.48c-0.3-0.06-0.42 0.05-0.57 0.27q-2.24 3.24-4.46 6.47c-0.09 0.12-0.17 0.26-0.3 0.47 0.67 0 1.26-0.02 1.85 0.01 0.3 0.01 0.49-0.09 0.67-0.35q2.02-2.91 4.06-5.81 0.27-0.38 0.56-0.81c-0.64-0.08-1.23-0.13-1.81-0.25zm0.59-9.77c-0.95 0-1.7 0.74-1.71 1.67 0 0.94 0.75 1.69 1.69 1.69 0.94 0 1.7-0.76 1.71-1.68 0-0.95-0.74-1.68-1.69-1.68zm0 0c-0.95 0-1.7 0.74-1.71 1.67 0 0.94 0.75 1.69 1.69 1.69 0.94 0 1.7-0.76 1.71-1.68 0-0.95-0.74-1.68-1.69-1.68zm1.22 10.02c-0.64-0.08-1.23-0.13-1.81-0.25-0.3-0.06-0.42 0.05-0.57 0.27q-2.24 3.24-4.46 6.47c-0.09 0.12-0.17 0.26-0.3 0.47 0.67 0 1.26-0.02 1.85 0.01 0.3 0.01 0.49-0.09 0.67-0.35q2.02-2.91 4.06-5.81 0.27-0.38 0.56-0.81zm12.29 0.23c-0.11-0.14-0.33-0.26-0.5-0.26q-4.76-0.01-9.52-0.01c-0.12 0-0.3 0.01-0.36 0.08-0.4 0.53-0.77 1.08-1.2 1.67h12.64c-0.39-0.55-0.7-1.03-1.06-1.48zm2.22 3.16c-0.07-0.09-0.25-0.12-0.38-0.12q-7.1-0.01-14.2 0c-0.12 0-0.29 0.01-0.35 0.09-0.36 0.47-0.7 0.97-1.09 1.52h17.08c-0.39-0.56-0.71-1.04-1.06-1.49zm0.03-13.41c-0.92 0-1.69 0.77-1.69 1.68 0 0.91 0.77 1.68 1.7 1.68 0.93 0 1.68-0.74 1.69-1.62 0.01-0.93-0.78-1.74-1.7-1.74zm0 0c-0.92 0-1.69 0.77-1.69 1.68 0 0.91 0.77 1.68 1.7 1.68 0.93 0 1.68-0.74 1.69-1.62 0.01-0.93-0.78-1.74-1.7-1.74zm-15.76 0c-0.95 0-1.7 0.74-1.71 1.67 0 0.94 0.75 1.69 1.69 1.69 0.94 0 1.7-0.76 1.71-1.68 0-0.95-0.74-1.68-1.69-1.68zm15.76 0c-0.92 0-1.69 0.77-1.69 1.68 0 0.91 0.77 1.68 1.7 1.68 0.93 0 1.68-0.74 1.69-1.62 0.01-0.93-0.78-1.74-1.7-1.74zm-19.19-19.75c0-0.78 0.22-1 1.01-1q5.12-0.01 10.24 0c3.41 0 6.87-0.01 10.3 0 0.76 0 0.97 0.21 0.98 0.97q-0.01 4.23 0 8.46c0 0.53-0.21 0.81-0.69 1.01-4.12 1.63-8.39 2.15-12.78 1.86q-4.29-0.29-8.32-1.78c-0.63-0.24-0.74-0.4-0.74-1.07zm3.43 19.75c-0.95 0-1.7 0.74-1.71 1.67 0 0.94 0.75 1.69 1.69 1.69 0.94 0 1.7-0.76 1.71-1.68 0-0.95-0.74-1.68-1.69-1.68zm15.76 0c-0.92 0-1.69 0.77-1.69 1.68 0 0.91 0.77 1.68 1.7 1.68 0.93 0 1.68-0.74 1.69-1.62 0.01-0.93-0.78-1.74-1.7-1.74zm0 0c-0.92 0-1.69 0.77-1.69 1.68 0 0.91 0.77 1.68 1.7 1.68 0.93 0 1.68-0.74 1.69-1.62 0.01-0.93-0.78-1.74-1.7-1.74zm-15.76 0c-0.95 0-1.7 0.74-1.71 1.67 0 0.94 0.75 1.69 1.69 1.69 0.94 0 1.7-0.76 1.71-1.68 0-0.95-0.74-1.68-1.69-1.68zm17.34 9.54c-0.7 0.15-1.35 0.28-2.06 0.43q0.05 0.11 0.09 0.18 2.28 3.26 4.57 6.52c0.08 0.1 0.22 0.22 0.34 0.22 0.67 0.02 1.34 0 2.12 0-1.73-2.52-3.4-4.95-5.06-7.35zm0 0c-0.7 0.15-1.35 0.28-2.06 0.43q0.05 0.11 0.09 0.18 2.28 3.26 4.57 6.52c0.08 0.1 0.22 0.22 0.34 0.22 0.67 0.02 1.34 0 2.12 0-1.73-2.52-3.4-4.95-5.06-7.35zm-1.58-9.54c-0.92 0-1.69 0.77-1.69 1.68 0 0.91 0.77 1.68 1.7 1.68 0.93 0 1.68-0.74 1.69-1.62 0.01-0.93-0.78-1.74-1.7-1.74zm-15.76 0c-0.95 0-1.7 0.74-1.71 1.67 0 0.94 0.75 1.69 1.69 1.69 0.94 0 1.7-0.76 1.71-1.68 0-0.95-0.74-1.68-1.69-1.68zm15.76 0c-0.92 0-1.69 0.77-1.69 1.68 0 0.91 0.77 1.68 1.7 1.68 0.93 0 1.68-0.74 1.69-1.62 0.01-0.93-0.78-1.74-1.7-1.74zm-19.19-19.75c0-0.78 0.22-1 1.01-1q5.12-0.01 10.24 0c3.41 0 6.87-0.01 10.3 0 0.76 0 0.97 0.21 0.98 0.97q-0.01 4.23 0 8.46c0 0.53-0.21 0.81-0.69 1.01-4.12 1.63-8.39 2.15-12.78 1.86q-4.29-0.29-8.32-1.78c-0.63-0.24-0.74-0.4-0.74-1.07zm19.19 19.75c-0.92 0-1.69 0.77-1.69 1.68 0 0.91 0.77 1.68 1.7 1.68 0.93 0 1.68-0.74 1.69-1.62 0.01-0.93-0.78-1.74-1.7-1.74zm-0.41 13.29q-7.1-0.01-14.2 0c-0.12 0-0.29 0.01-0.35 0.09-0.36 0.47-0.7 0.97-1.09 1.52h17.08c-0.39-0.56-0.71-1.04-1.06-1.49-0.07-0.09-0.25-0.12-0.38-0.12zm-2.34-3.3q-4.76-0.01-9.52-0.01c-0.12 0-0.3 0.01-0.36 0.08-0.4 0.53-0.77 1.08-1.2 1.67h12.64c-0.39-0.55-0.7-1.03-1.06-1.48-0.11-0.14-0.33-0.26-0.5-0.26zm-11.79 0.03c-0.64-0.08-1.23-0.13-1.81-0.25-0.3-0.06-0.42 0.05-0.57 0.27q-2.24 3.24-4.46 6.47c-0.09 0.12-0.17 0.26-0.3 0.47 0.67 0 1.26-0.02 1.85 0.01 0.3 0.01 0.49-0.09 0.67-0.35q2.02-2.9 4.06-5.81 0.27-0.38 0.56-0.81zm-1.22-10.02c-0.95 0-1.7 0.74-1.71 1.67 0 0.94 0.75 1.69 1.69 1.69 0.94 0 1.7-0.76 1.71-1.68 0-0.95-0.74-1.68-1.69-1.68zm0 0c-0.95 0-1.7 0.74-1.71 1.67 0 0.94 0.75 1.69 1.69 1.69 0.94 0 1.7-0.76 1.71-1.68 0-0.95-0.74-1.68-1.69-1.68zm15.76 0c-0.92 0-1.69 0.77-1.69 1.68 0 0.91 0.77 1.68 1.7 1.68 0.93 0 1.68-0.74 1.69-1.62 0.01-0.93-0.78-1.74-1.7-1.74zm1.58 9.54c-0.7 0.15-1.35 0.28-2.06 0.43q0.05 0.11 0.09 0.18 2.28 3.26 4.57 6.52c0.08 0.1 0.22 0.22 0.34 0.22 0.67 0.02 1.34 0 2.12 0-1.73-2.52-3.4-4.95-5.06-7.35zm-1.58-9.54c-0.92 0-1.69 0.77-1.69 1.68 0 0.91 0.77 1.68 1.7 1.68 0.93 0 1.68-0.74 1.69-1.62 0.01-0.93-0.78-1.74-1.7-1.74zm-19.19-19.75c0-0.78 0.22-1 1.01-1q5.12-0.01 10.24 0c3.41 0 6.87-0.01 10.3 0 0.76 0 0.97 0.21 0.98 0.97q-0.01 4.23 0 8.46c0 0.53-0.21 0.81-0.69 1.01-4.12 1.63-8.39 2.15-12.78 1.86q-4.29-0.29-8.32-1.78c-0.63-0.24-0.74-0.4-0.74-1.07zm3.43 19.75c-0.95 0-1.7 0.74-1.71 1.67 0 0.94 0.75 1.69 1.69 1.69 0.94 0 1.7-0.76 1.71-1.68 0-0.95-0.74-1.68-1.69-1.68zm15.76 0c-0.92 0-1.69 0.77-1.69 1.68 0 0.91 0.77 1.68 1.7 1.68 0.93 0 1.68-0.74 1.69-1.62 0.01-0.93-0.78-1.74-1.7-1.74zm0 0c-0.92 0-1.69 0.77-1.69 1.68 0 0.91 0.77 1.68 1.7 1.68 0.93 0 1.68-0.74 1.69-1.62 0.01-0.93-0.78-1.74-1.7-1.74zm-0.41 13.29q-7.1-0.01-14.2 0c-0.12 0-0.29 0.01-0.35 0.09-0.36 0.47-0.7 0.97-1.09 1.52h17.08c-0.39-0.56-0.71-1.04-1.06-1.49-0.07-0.09-0.25-0.12-0.38-0.12zm-2.34-3.3q-4.76-0.01-9.52-0.01c-0.12 0-0.3 0.01-0.36 0.08-0.4 0.53-0.77 1.08-1.2 1.67h12.64c-0.39-0.55-0.7-1.03-1.06-1.48-0.11-0.14-0.33-0.26-0.5-0.26zm-13.6-0.22c-0.3-0.06-0.42 0.05-0.57 0.27q-2.24 3.24-4.46 6.47c-0.09 0.12-0.17 0.26-0.3 0.47 0.67 0 1.26-0.02 1.85 0.01 0.3 0.01 0.49-0.09 0.67-0.35q2.02-2.9 4.06-5.81 0.27-0.38 0.56-0.81c-0.64-0.08-1.23-0.13-1.81-0.25zm0.59-9.77c-0.95 0-1.7 0.74-1.71 1.67 0 0.94 0.75 1.69 1.69 1.69 0.94 0 1.7-0.76 1.71-1.68 0-0.95-0.74-1.68-1.69-1.68zm0 0c-0.95 0-1.7 0.74-1.71 1.67 0 0.94 0.75 1.69 1.69 1.69 0.94 0 1.7-0.76 1.71-1.68 0-0.95-0.74-1.68-1.69-1.68zm-0.59 9.77c-0.3-0.06-0.42 0.05-0.57 0.27q-2.24 3.24-4.46 6.47c-0.09 0.12-0.17 0.26-0.3 0.47 0.67 0 1.26-0.02 1.85 0.01 0.3 0.01 0.49-0.09 0.67-0.35q2.02-2.9 4.06-5.81 0.27-0.38 0.56-0.81c-0.64-0.08-1.23-0.13-1.81-0.25zm14.1 0.48c-0.11-0.14-0.33-0.26-0.5-0.26q-4.76-0.01-9.52-0.01c-0.12 0-0.3 0.01-0.36 0.08-0.4 0.53-0.77 1.08-1.2 1.67h12.64c-0.39-0.55-0.7-1.03-1.06-1.48zm2.22 3.16c-0.07-0.09-0.25-0.12-0.38-0.12q-7.1-0.01-14.2 0c-0.12 0-0.29 0.01-0.35 0.09-0.36 0.47-0.7 0.97-1.09 1.52h17.08c-0.39-0.56-0.71-1.04-1.06-1.49zm0.03-13.41c-0.92 0-1.69 0.77-1.69 1.68 0 0.91 0.77 1.68 1.7 1.68 0.93 0 1.68-0.74 1.69-1.62 0.01-0.93-0.78-1.74-1.7-1.74zm0 0c-0.92 0-1.69 0.77-1.69 1.68 0 0.91 0.77 1.68 1.7 1.68 0.93 0 1.68-0.74 1.69-1.62 0.01-0.93-0.78-1.74-1.7-1.74zm-15.76 0c-0.95 0-1.7 0.74-1.71 1.67 0 0.94 0.75 1.69 1.69 1.69 0.94 0 1.7-0.76 1.71-1.68 0-0.95-0.74-1.68-1.69-1.68zm0 0c-0.95 0-1.7 0.74-1.71 1.67 0 0.94 0.75 1.69 1.69 1.69 0.94 0 1.7-0.76 1.71-1.68 0-0.95-0.74-1.68-1.69-1.68zm-3.43-19.75c0-0.78 0.22-1 1.01-1q5.12-0.01 10.24 0c3.41 0 6.87-0.01 10.3 0 0.76 0 0.97 0.21 0.98 0.97q-0.01 4.23 0 8.46c0 0.53-0.21 0.81-0.69 1.01-4.12 1.63-8.39 2.15-12.78 1.86q-4.29-0.29-8.32-1.78c-0.63-0.24-0.74-0.4-0.74-1.07zm3.43 19.75c-0.95 0-1.7 0.74-1.71 1.67 0 0.94 0.75 1.69 1.69 1.69 0.94 0 1.7-0.76 1.71-1.68 0-0.95-0.74-1.68-1.69-1.68zm15.76 0c-0.92 0-1.69 0.77-1.69 1.68 0 0.91 0.77 1.68 1.7 1.68 0.93 0 1.68-0.74 1.69-1.62 0.01-0.93-0.78-1.74-1.7-1.74zm0 0c-0.92 0-1.69 0.77-1.69 1.68 0 0.91 0.77 1.68 1.7 1.68 0.93 0 1.68-0.74 1.69-1.62 0.01-0.93-0.78-1.74-1.7-1.74zm-15.76 0c-0.95 0-1.7 0.74-1.71 1.67 0 0.94 0.75 1.69 1.69 1.69 0.94 0 1.7-0.76 1.71-1.68 0-0.95-0.74-1.68-1.69-1.68zm17.34 9.54c-0.7 0.15-1.35 0.28-2.06 0.43q0.05 0.11 0.09 0.18 2.28 3.26 4.57 6.52c0.08 0.1 0.22 0.22 0.34 0.22 0.67 0.02 1.34 0 2.12 0-1.73-2.52-3.4-4.95-5.06-7.35zm0 0c-0.7 0.15-1.35 0.28-2.06 0.43q0.05 0.11 0.09 0.18 2.28 3.26 4.57 6.52c0.08 0.1 0.22 0.22 0.34 0.22 0.67 0.02 1.34 0 2.12 0-1.73-2.52-3.4-4.95-5.06-7.35zm-17.34-9.54c-0.95 0-1.7 0.74-1.71 1.67 0 0.94 0.75 1.69 1.69 1.69 0.94 0 1.7-0.76 1.71-1.68 0-0.95-0.74-1.68-1.69-1.68zm15.76 0c-0.92 0-1.69 0.77-1.69 1.68 0 0.91 0.77 1.68 1.7 1.68 0.93 0 1.68-0.74 1.69-1.62 0.01-0.93-0.78-1.74-1.7-1.74zm0 0c-0.92 0-1.69 0.77-1.69 1.68 0 0.91 0.77 1.68 1.7 1.68 0.93 0 1.68-0.74 1.69-1.62 0.01-0.93-0.78-1.74-1.7-1.74zm-15.76 0c-0.95 0-1.7 0.74-1.71 1.67 0 0.94 0.75 1.69 1.69 1.69 0.94 0 1.7-0.76 1.71-1.68 0-0.95-0.74-1.68-1.69-1.68zm-3.43-19.75c0-0.78 0.22-1 1.01-1q5.12-0.01 10.24 0c3.41 0 6.87-0.01 10.3 0 0.76 0 0.97 0.21 0.98 0.97q-0.01 4.23 0 8.46c0 0.53-0.21 0.81-0.69 1.01-4.12 1.63-8.39 2.15-12.78 1.86q-4.29-0.29-8.32-1.78c-0.63-0.24-0.74-0.4-0.74-1.07zm0 0c0-0.78 0.22-1 1.01-1q5.12-0.01 10.24 0c3.41 0 6.87-0.01 10.3 0 0.76 0 0.97 0.21 0.98 0.97q-0.01 4.23 0 8.46c0 0.53-0.21 0.81-0.69 1.01-4.12 1.63-8.39 2.15-12.78 1.86q-4.29-0.29-8.32-1.78c-0.63-0.24-0.74-0.4-0.74-1.07zm3.43 19.75c-0.95 0-1.7 0.74-1.71 1.67 0 0.94 0.75 1.69 1.69 1.69 0.94 0 1.7-0.76 1.71-1.68 0-0.95-0.74-1.68-1.69-1.68zm15.76 0c-0.92 0-1.69 0.77-1.69 1.68 0 0.91 0.77 1.68 1.7 1.68 0.93 0 1.68-0.74 1.69-1.62 0.01-0.93-0.78-1.74-1.7-1.74zm0 0c-0.92 0-1.69 0.77-1.69 1.68 0 0.91 0.77 1.68 1.7 1.68 0.93 0 1.68-0.74 1.69-1.62 0.01-0.93-0.78-1.74-1.7-1.74zm-15.76 0c-0.95 0-1.7 0.74-1.71 1.67 0 0.94 0.75 1.69 1.69 1.69 0.94 0 1.7-0.76 1.71-1.68 0-0.95-0.74-1.68-1.69-1.68zm0 0c-0.95 0-1.7 0.74-1.71 1.67 0 0.94 0.75 1.69 1.69 1.69 0.94 0 1.7-0.76 1.71-1.68 0-0.95-0.74-1.68-1.69-1.68zm15.76 0c-0.92 0-1.69 0.77-1.69 1.68 0 0.91 0.77 1.68 1.7 1.68 0.93 0 1.68-0.74 1.69-1.62 0.01-0.93-0.78-1.74-1.7-1.74zm0 0c-0.92 0-1.69 0.77-1.69 1.68 0 0.91 0.77 1.68 1.7 1.68 0.93 0 1.68-0.74 1.69-1.62 0.01-0.93-0.78-1.74-1.7-1.74zm-0.03 13.41c-0.07-0.09-0.25-0.12-0.38-0.12q-7.1-0.01-14.2 0c-0.12 0-0.29 0.01-0.35 0.09-0.36 0.47-0.7 0.97-1.09 1.52h17.08c-0.39-0.56-0.71-1.04-1.06-1.49zm-2.22-3.16c-0.11-0.14-0.33-0.26-0.5-0.26q-4.76-0.01-9.52-0.01c-0.12 0-0.3 0.01-0.36 0.08-0.4 0.53-0.77 1.08-1.2 1.67h12.64c-0.39-0.55-0.7-1.03-1.06-1.48zm-14.1-0.48c-0.3-0.06-0.42 0.05-0.57 0.27q-2.24 3.24-4.46 6.47c-0.09 0.12-0.17 0.26-0.3 0.47 0.67 0 1.26-0.02 1.85 0.01 0.3 0.01 0.49-0.09 0.67-0.35q2.02-2.9 4.06-5.81 0.27-0.38 0.56-0.81c-0.64-0.08-1.23-0.13-1.81-0.25zm0.59-9.77c-0.95 0-1.7 0.74-1.71 1.67 0 0.94 0.75 1.69 1.69 1.69 0.94 0 1.7-0.76 1.71-1.68 0-0.95-0.74-1.68-1.69-1.68zm15.76 0c-0.92 0-1.69 0.77-1.69 1.68 0 0.91 0.77 1.68 1.7 1.68 0.93 0 1.68-0.74 1.69-1.62 0.01-0.93-0.78-1.74-1.7-1.74zm-19.19-19.75c0-0.78 0.22-1 1.01-1q5.12-0.01 10.24 0c3.41 0 6.87-0.01 10.3 0 0.76 0 0.97 0.21 0.98 0.97q-0.01 4.23 0 8.46c0 0.53-0.21 0.81-0.69 1.01-4.12 1.63-8.39 2.15-12.78 1.86q-4.29-0.29-8.32-1.78c-0.63-0.24-0.74-0.4-0.74-1.07zm0 0c0-0.78 0.22-1 1.01-1q5.12-0.01 10.24 0c3.41 0 6.87-0.01 10.3 0 0.76 0 0.97 0.21 0.98 0.97q-0.01 4.23 0 8.46c0 0.53-0.21 0.81-0.69 1.01-4.12 1.63-8.39 2.15-12.78 1.86q-4.29-0.29-8.32-1.78c-0.63-0.24-0.74-0.4-0.74-1.07zm19.19 19.75c-0.92 0-1.69 0.77-1.69 1.68 0 0.91 0.77 1.68 1.7 1.68 0.93 0 1.68-0.74 1.69-1.62 0.01-0.93-0.78-1.74-1.7-1.74z"/>
		<path class="s0" d="m540.45 218.32h-3.33v-3.73q0.8-0.01 1.6 0c0.07 0.01 0.16 0.1 0.19 0.17 0.51 1.16 1.01 2.33 1.54 3.56z"/>
		<path class="s0" d="m546.27 225.84h-3.88v-2.23q1.2-0.01 2.42 0c0.06 0 0.15 0.05 0.18 0.11 0.42 0.69 0.83 1.37 1.28 2.12z"/>
		<path class="s0" d="m549.13 234.91q0.01 1.49-0.01 2.94c-0.01 0.48-0.32 0.78-0.82 0.78q-1.43 0.03-2.86 0c-0.5 0-0.81-0.29-0.82-0.78-0.02-0.97 0-1.94 0-2.94z"/>
		<path class="s0" d="m572.04 231.15c-0.23 0.58-0.47 1.12-0.65 1.68-0.14 0.42-0.35 0.56-0.8 0.56-4.71-0.02-14.42 0-20.99 0q-2.02 0-4.06-0.01-0.07 0.01-0.15 0-1.41 0.01-2.83 0c-0.16 0-0.43-0.05-0.47-0.15-0.31-0.68-0.57-1.37-0.85-2.07h30.8z"/>
		<path class="s0" d="m568.67 234.9q0.01 1.52-0.01 3.01c0 0.43-0.31 0.71-0.73 0.72q-1.51 0.03-3.01 0c-0.44-0.01-0.74-0.31-0.75-0.75q-0.02-1.46-0.01-2.98z"/>
		<path class="s0" d="m570.91 223.6v2.23h-3.89c0.44-0.72 0.84-1.4 1.26-2.07 0.05-0.08 0.19-0.15 0.3-0.15q1.13-0.01 2.33-0.01z"/>
		<path class="s0" d="m576.16 214.58v3.74h-3.31q0.27-0.65 0.51-1.23 0.47-1.12 0.97-2.23c0.05-0.12 0.23-0.26 0.35-0.26 0.48-0.03 0.96-0.02 1.48-0.02z"/>
		<path class="s0" d="m556.44 188.81q-1.49 0-2.95 0.15-2 0.2-3.92 0.66c-12.99 3.09-22.65 14.78-22.65 28.71 0 16.3 13.22 29.52 29.52 29.52 16.3 0 29.52-13.22 29.52-29.52 0-16.3-13.22-29.52-29.52-29.52zm20.38 31.03q-2.15 0.01-4.36 0v9.78q0.33-0.01 0.67 0c0.59 0.02 0.96 0.47 0.75 1.01q-0.73 1.9-1.51 3.79-0.21 0.47-0.74 0.46-0.69-0.01-1.46 0v2.79c0 1.56-0.9 2.47-2.47 2.47h-2.78c-1.28 0-2.25-0.98-2.26-2.26q0-1.46 0-3h-12.03v2.95c-0.01 1.34-0.97 2.3-2.32 2.31h-2.96c-1.25 0-2.22-0.99-2.23-2.24q-0.01-1.44-0.01-2.87 0-0.03-0.04-0.15-0.69-0.01-1.37 0-0.61 0.01-0.83-0.55-0.73-1.8-1.44-3.61c-0.24-0.63 0.09-1.09 0.77-1.1h0.63v-9.78h-1.65q-1.38 0.01-2.77 0c-0.49 0-0.8-0.26-0.81-0.71q0-2.65 0-5.31c0-0.45 0.3-0.73 0.75-0.73q1.5-0.01 3.01 0c0.38 0 0.6 0.22 0.74 0.54 0.33 0.77 0.66 1.54 1.09 2.3q0.12-0.96 0.23-1.92 0.47-4.16 0.92-8.3 0.31-2.73 0.59-5.46c0.13-1.34 1.05-2.2 2.39-2.2h22.64c1.35 0 2.26 0.87 2.4 2.2 0.29 2.76 0.61 5.5 0.91 8.26q0.39 3.58 0.78 7.18c0.01 0.07 0.03 0.14 0.05 0.32 0.11-0.17 0.18-0.26 0.22-0.35q0.43-1.02 0.87-2.03 0.23-0.55 0.83-0.55 1.41 0.01 2.82 0.01c0.58 0 0.85 0.27 0.85 0.87v5.03c-0.01 0.59-0.27 0.85-0.87 0.85zm-25.67-20.29h-5.86c-0.45 0.02-0.74 0.23-0.81 0.69q-0.06 0.42-0.1 0.84-0.41 3.6-0.8 7.22-0.36 3.19-0.72 6.39-0.2 1.8-0.39 3.63h10.09q-0.22-9.53-1.41-18.77zm14.76 27.81c-0.36 0.01-0.69-0.02-0.89-0.37-0.22-0.37-0.06-0.68 0.13-1q1-1.63 1.95-3.26c0.26-0.47 0.6-0.66 1.14-0.64 0.88 0.04 1.77 0.01 2.65 0.01v-2.26h-28.49v2.26c0.96 0 1.88 0.02 2.81 0q0.59-0.02 0.88 0.48 1.06 1.75 2.1 3.51c0.42 0.71 0.09 1.27-0.74 1.27h-5.06v2.22h28.51v-2.22zm0 0c-0.36 0.01-0.69-0.02-0.89-0.37-0.22-0.37-0.06-0.68 0.13-1q1-1.63 1.95-3.26c0.26-0.47 0.6-0.66 1.14-0.64 0.88 0.04 1.77 0.01 2.65 0.01v-2.26h-28.49v2.26c0.96 0 1.88 0.02 2.81 0q0.59-0.02 0.88 0.48 1.06 1.75 2.1 3.51c0.42 0.71 0.09 1.27-0.74 1.27h-5.06v2.22h28.51v-2.22zm4.91-9.04q-0.18-1.61-0.35-3.18-0.4-3.6-0.79-7.18-0.42-3.66-0.81-7.32c-0.1-0.88-0.29-1.09-1.17-1.09h-22.41c-0.45 0.02-0.74 0.23-0.81 0.69q-0.06 0.42-0.1 0.84-0.41 3.6-0.8 7.22-0.36 3.2-0.72 6.39-0.19 1.8-0.39 3.63zm-19.67-18.77h-5.86c-0.45 0.02-0.74 0.23-0.81 0.69q-0.06 0.42-0.1 0.84-0.41 3.6-0.8 7.22-0.36 3.2-0.72 6.39-0.19 1.8-0.39 3.63h10.09q-0.22-9.53-1.41-18.77zm19.67 18.77q-0.18-1.61-0.35-3.18-0.4-3.6-0.79-7.18-0.42-3.66-0.81-7.32c-0.1-0.88-0.29-1.09-1.17-1.09h-22.41c-0.45 0.02-0.74 0.23-0.81 0.69q-0.06 0.42-0.1 0.84-0.41 3.6-0.8 7.22-0.36 3.2-0.72 6.39-0.19 1.8-0.39 3.63zm-4.91 9.04c-0.36 0.01-0.69-0.02-0.89-0.37-0.22-0.37-0.06-0.68 0.13-1q1-1.63 1.95-3.26c0.26-0.47 0.6-0.66 1.14-0.64 0.88 0.04 1.77 0.01 2.65 0.01v-2.26h-28.49v2.26c0.96 0 1.88 0.02 2.81 0q0.59-0.02 0.88 0.48 1.06 1.75 2.1 3.51c0.42 0.71 0.09 1.27-0.74 1.27h-5.06v2.22h28.51v-2.22zm-0.89-0.37c-0.22-0.37-0.06-0.68 0.13-1q1-1.63 1.95-3.26c0.26-0.47 0.6-0.66 1.14-0.64 0.88 0.04 1.77 0.01 2.65 0.01v-2.26h-28.49v2.26c0.96 0 1.88 0.02 2.81 0q0.59-0.02 0.88 0.48 1.06 1.75 2.1 3.51c0.42 0.71 0.09 1.27-0.74 1.27h-5.06v2.22h28.51v-2.22h-4.99c-0.36 0.01-0.69-0.02-0.89-0.37zm5.45-11.85q-0.4-3.6-0.79-7.18-0.42-3.66-0.81-7.32c-0.1-0.88-0.29-1.09-1.17-1.09h-22.41c-0.45 0.02-0.74 0.23-0.81 0.69q-0.06 0.42-0.1 0.84-0.41 3.6-0.8 7.22-0.36 3.2-0.72 6.39-0.19 1.8-0.39 3.63h28.35q-0.18-1.61-0.35-3.18zm-4.56 12.22c-0.36 0.01-0.69-0.02-0.89-0.37-0.22-0.37-0.06-0.68 0.13-1q1-1.63 1.95-3.26c0.26-0.47 0.6-0.66 1.14-0.64 0.88 0.04 1.77 0.01 2.65 0.01v-2.26h-28.49v2.26c0.96 0 1.88 0.02 2.81 0q0.59-0.02 0.88 0.48 1.06 1.75 2.1 3.51c0.42 0.71 0.09 1.27-0.74 1.27h-5.06v2.22h28.51v-2.22zm4.56-12.22q-0.4-3.6-0.79-7.18-0.42-3.66-0.81-7.32c-0.1-0.88-0.29-1.09-1.17-1.09h-12.55q1.18 9.25 1.38 18.77h14.29q-0.18-1.61-0.35-3.18zm-4.56 12.22c-0.36 0.01-0.69-0.02-0.89-0.37-0.22-0.37-0.06-0.68 0.13-1q1-1.63 1.95-3.26c0.26-0.47 0.6-0.66 1.14-0.64 0.88 0.04 1.77 0.01 2.65 0.01v-2.26h-28.49v2.26c0.96 0 1.88 0.02 2.81 0q0.59-0.02 0.88 0.48 1.06 1.75 2.1 3.51c0.42 0.71 0.09 1.27-0.74 1.27h-5.06v2.22h28.51v-2.22zm4.56-12.22q-0.4-3.6-0.79-7.18-0.42-3.66-0.81-7.32c-0.1-0.88-0.29-1.09-1.17-1.09h-12.55q1.18 9.25 1.38 18.77h14.29q-0.18-1.61-0.35-3.18zm-19.32-15.59h-5.86c-0.45 0.02-0.74 0.23-0.81 0.69q-0.06 0.42-0.1 0.84-0.41 3.6-0.8 7.22-0.36 3.2-0.72 6.39-0.19 1.8-0.39 3.63h10.09q-0.22-9.53-1.41-18.77zm19.32 15.59q-0.4-3.6-0.79-7.18-0.42-3.66-0.81-7.32c-0.1-0.88-0.29-1.09-1.17-1.09h-12.55q1.18 9.25 1.38 18.77h14.29q-0.18-1.61-0.35-3.18zm-4.56 12.22c-0.36 0.01-0.69-0.02-0.89-0.37-0.22-0.37-0.06-0.68 0.13-1q1-1.63 1.95-3.26c0.26-0.47 0.6-0.66 1.14-0.64 0.88 0.04 1.77 0.01 2.65 0.01v-2.26h-28.49v2.26c0.96 0 1.88 0.02 2.81 0q0.59-0.02 0.88 0.48 1.06 1.75 2.1 3.51c0.42 0.71 0.09 1.27-0.74 1.27h-5.06v2.22h28.51v-2.22zm0 0c-0.36 0.01-0.69-0.02-0.89-0.37-0.22-0.37-0.06-0.68 0.13-1q1-1.63 1.95-3.26c0.26-0.47 0.6-0.66 1.14-0.64 0.88 0.04 1.77 0.01 2.65 0.01v-2.26h-28.49v2.26c0.96 0 1.88 0.02 2.81 0q0.59-0.02 0.88 0.48 1.06 1.75 2.1 3.51c0.42 0.71 0.09 1.27-0.74 1.27h-5.06v2.22h28.51v-2.22zm-14.76-27.81h-5.86c-0.45 0.02-0.74 0.23-0.81 0.69q-0.06 0.42-0.1 0.84-0.41 3.6-0.8 7.22-0.36 3.2-0.72 6.39-0.19 1.8-0.39 3.63h10.09q-0.22-9.53-1.41-18.77zm19.32 15.59q-0.4-3.6-0.79-7.18-0.42-3.66-0.81-7.32c-0.1-0.88-0.29-1.09-1.17-1.09h-12.55q1.18 9.25 1.38 18.77h14.29q-0.18-1.61-0.35-3.18zm-4.56 12.22c-0.36 0.01-0.69-0.02-0.89-0.37-0.22-0.37-0.06-0.68 0.13-1q1-1.63 1.95-3.26c0.26-0.47 0.6-0.66 1.14-0.64 0.88 0.04 1.77 0.01 2.65 0.01v-2.26h-28.49v2.26c0.96 0 1.88 0.02 2.81 0q0.59-0.02 0.88 0.48 1.06 1.75 2.1 3.51c0.42 0.71 0.09 1.27-0.74 1.27h-5.06v2.22h28.51v-2.22z"/>
		<path class="s0" d="m190.21 211h-6.17v-6.18h2.35c0.13 0.53-0.17 1.34 0.8 1.35 0.49 0 0.62-0.27 0.69-1.37h2.33z"/>
		<path class="s0" d="m194.07 203.36h-6.19v-6.21h2.35c0.07 0.56-0.13 1.39 0.77 1.37 0.83-0.02 0.66-0.79 0.72-1.38h2.35z"/>
		<path class="s0" d="m201.94 189.62q-1.92-0.46-3.92-0.66-1.46-0.15-2.95-0.15c-16.31 0-29.52 13.22-29.52 29.52 0 16.3 13.21 29.52 29.52 29.52 7 0 13.44-2.44 18.5-6.53q-1.64-0.07-3.11-0.86c-0.9-0.47-1.8-1.01-2.76-1.27-1.5-0.41-3-0.19-4.38 0.62-1 0.6-2 1.2-3.18 1.4-1.78 0.29-3.47 0.1-5.07-0.77-0.85-0.46-1.7-0.97-2.62-1.23-1.57-0.43-3.13-0.22-4.56 0.65-0.97 0.59-1.95 1.16-3.1 1.35-1.78 0.29-3.46 0.1-5.07-0.77q-1.32-0.71-2.71-1.26c-0.39-0.15-0.84-0.13-1.27-0.16-0.51-0.05-0.83-0.32-0.82-0.73 0.02-0.41 0.34-0.67 0.87-0.67h0.38c1.21 0.04 2.39 0.46 3.49 1.14 0.8 0.49 1.61 0.95 2.57 1.08 1.48 0.19 2.89 0.05 4.18-0.76 1.06-0.65 2.13-1.24 3.4-1.39 1.65-0.2 3.25-0.04 4.73 0.8 0.6 0.34 1.18 0.74 1.82 0.99 1.83 0.7 3.64 0.64 5.36-0.37 1.1-0.65 2.19-1.28 3.49-1.43 1.6-0.18 3.15-0.03 4.59 0.76q0.63 0.33 1.25 0.71c0.83 0.5 1.74 0.73 2.72 0.77 0.27 0.01 0.6 0.11 0.78 0.3q0.07 0.06 0.1 0.19c6.09-5.4 9.93-13.29 9.93-22.08 0-13.93-9.65-25.62-22.64-28.71zm11.83 46.21c0.18 0 0.43-0.03 0.52 0.07 0.19 0.21 0.4 0.5 0.4 0.76 0 0.34-0.29 0.56-0.68 0.57q-1.87 0.04-3.51-0.86-0.46-0.26-0.94-0.54c-2.13-1.23-4.29-1.27-6.4 0-1.48 0.89-3 1.47-4.75 1.4-1.35-0.05-2.6-0.4-3.73-1.13-1.23-0.8-2.55-1.26-4.05-1.17-0.94 0.06-1.81 0.28-2.62 0.76-1.07 0.64-2.15 1.28-3.43 1.45-1.85 0.25-3.6 0-5.21-1-0.86-0.54-1.73-1.04-2.76-1.15q-0.39-0.04-0.78-0.05c-0.58-0.02-0.93-0.31-0.91-0.76 0.02-0.44 0.39-0.75 0.97-0.67 0.98 0.14 1.96 0.34 2.95 0.52-0.81-1.76-1.64-3.6-2.48-5.44q-0.56-1.2-1.11-2.42c-0.88-1.98 0-4.23 2.02-5.02 0.53-0.21 0.66-0.47 0.66-1q-0.03-4.01-0.01-8.01c0-0.9 0.2-1.1 1.1-1.1h3.59v-6.68c0-0.77 0.2-0.96 0.96-0.97h2.86v-6.61c0-0.87 0.21-1.08 1.08-1.08h14.63c0.84 0 1.05 0.21 1.05 1.05v6.64h2.83c0.18 0 0.37-0.02 0.54 0.04 0.39 0.15 0.48 0.49 0.48 0.88q0 3.07 0 6.13v0.6h3.04q0.35-0.01 0.69 0c0.68 0.01 0.92 0.24 0.92 0.92q0.01 4.2 0 8.4c-0.01 0.36 0.08 0.54 0.44 0.68 2.29 0.87 3.19 3.06 2.18 5.3q-1.88 4.18-3.8 8.36c0.97 0.73 2.06 1.08 3.26 1.13zm-1.44-9.35q-6.71-2.6-13.43-5.18-1.91-0.75-3.82-1.48-0.06-0.03-0.14-0.03c-0.17-0.02-0.35 0.02-0.5 0.07q-8.26 3.2-16.5 6.39-0.45 0.17-0.9 0.36 0.05 0.17 0.07 0.25 1.88 4.13 3.78 8.25c0.08 0.18 0.3 0.35 0.49 0.42 1.07 0.35 2.19 0.47 3.25 0.14 0.96-0.3 1.87-0.79 2.76-1.27 1.61-0.86 3.3-1.05 5.07-0.76 1.15 0.19 2.11 0.8 3.12 1.33 0.66 0.34 1.38 0.62 2.1 0.76 1.69 0.33 3.22-0.13 4.64-1.06q1.44-0.96 3.18-1.12c1.29-0.12 2.52 0.04 3.76 0.5 1.12-2.47 2.24-4.91 3.38-7.42-0.14-0.06-0.22-0.11-0.31-0.15zm-0.83-4.19q-6.27-2.41-12.53-4.84-1.83-0.71-3.65-1.42-0.15-0.05-0.28-0.07-0.3-0.07-0.65 0.06-4.18 1.63-8.36 3.24-4.05 1.56-8.09 3.12c-1.26 0.5-1.85 1.63-1.49 2.92q0.27-0.09 0.55-0.2 8.64-3.33 17.28-6.69 0.36-0.14 0.7-0.09 0.17 0.01 0.38 0.09 1.78 0.69 3.56 1.38 5.59 2.17 11.19 4.33c1.02 0.4 2.05 0.79 3.16 1.22 0.02-0.35 0.06-0.59 0.04-0.84-0.07-1.16-0.77-1.81-1.81-2.21zm-32.13-9.8v7.8q0.32-0.1 0.62-0.21 7.15-2.75 14.29-5.54 0.43-0.17 0.82-0.08 0.13 0.03 0.26 0.08 1.83 0.71 3.66 1.42l7.83 3.03q1.69 0.64 3.42 1.32v-7.82zm32.96 13.99q-6.71-2.6-13.43-5.18-1.91-0.75-3.82-1.48-0.06-0.03-0.14-0.03c-0.17-0.02-0.35 0.02-0.5 0.07q-8.27 3.2-16.5 6.39-0.45 0.17-0.9 0.36 0.05 0.17 0.07 0.25 1.88 4.13 3.78 8.25c0.08 0.18 0.3 0.35 0.49 0.42 1.07 0.35 2.19 0.47 3.25 0.14 0.96-0.3 1.87-0.79 2.76-1.27 1.61-0.86 3.3-1.05 5.07-0.76 1.15 0.19 2.11 0.8 3.12 1.33 0.66 0.34 1.38 0.62 2.1 0.76 1.69 0.33 3.22-0.13 4.64-1.06q1.44-0.96 3.18-1.12c1.29-0.12 2.52 0.04 3.76 0.5 1.12-2.47 2.24-4.91 3.38-7.42-0.14-0.06-0.22-0.11-0.31-0.15zm-0.83-4.19q-6.27-2.41-12.53-4.84-1.83-0.71-3.65-1.42-0.15-0.05-0.28-0.07-0.3-0.07-0.65 0.06-4.18 1.63-8.36 3.24-4.05 1.56-8.09 3.12c-1.26 0.5-1.85 1.63-1.49 2.92q0.27-0.09 0.55-0.2 8.64-3.33 17.28-6.69 0.36-0.14 0.7-0.09 0.17 0.01 0.38 0.09 1.78 0.69 3.56 1.38 5.59 2.17 11.19 4.33c1.02 0.4 2.05 0.79 3.16 1.22 0.02-0.35 0.06-0.59 0.04-0.84-0.07-1.16-0.77-1.81-1.81-2.21zm-8.29-17.51c-0.06 1.12-0.19 1.39-0.67 1.39-0.98-0.01-0.66-0.83-0.79-1.35h-2.35v6.19h6.18v-6.23zm-2.52-7.63q-0.45 3.09-0.78 6.21h1.86v-6.21zm-5.11 7.66c-0.13 1.13-0.25 1.35-0.74 1.37-0.5 0.01-0.63-0.22-0.78-1.36h-2.32v6.2h6.18v-6.21zm6.19-1.45v-6.21h-2.39c-0.07 0.56 0.13 1.34-0.71 1.36-0.88 0-0.68-0.79-0.74-1.35h-2.35v6.2zm-22.4 9.13v7.8q0.33-0.1 0.62-0.21 7.15-2.76 14.29-5.54 0.43-0.17 0.82-0.08 0.13 0.03 0.26 0.08 1.83 0.71 3.66 1.42l7.83 3.03q1.69 0.64 3.42 1.32v-7.82zm0 0v7.8q0.32-0.1 0.62-0.21 7.15-2.76 14.29-5.54 0.43-0.17 0.82-0.08 0.13 0.03 0.26 0.08 1.83 0.71 3.66 1.42l7.83 3.03q1.69 0.64 3.42 1.32v-7.82zm16.21-7.68c-0.13 1.13-0.25 1.35-0.74 1.37-0.5 0.01-0.63-0.22-0.78-1.36h-2.32v6.2h6.18v-6.21zm7.63-0.03c-0.06 1.12-0.19 1.39-0.67 1.39-0.98-0.01-0.66-0.83-0.79-1.35h-2.35v6.19h6.18v-6.23zm9.12 21.7q-6.71-2.6-13.43-5.18-1.91-0.75-3.82-1.48-0.06-0.03-0.14-0.03c-0.17-0.02-0.35 0.02-0.5 0.07q-8.26 3.19-16.5 6.39-0.45 0.17-0.9 0.36 0.05 0.17 0.07 0.25 1.88 4.12 3.78 8.25c0.08 0.18 0.3 0.35 0.49 0.42 1.07 0.35 2.19 0.47 3.25 0.14 0.96-0.3 1.87-0.79 2.76-1.27 1.61-0.86 3.3-1.05 5.07-0.76 1.15 0.19 2.11 0.8 3.12 1.33 0.66 0.34 1.38 0.62 2.1 0.76 1.69 0.33 3.22-0.13 4.64-1.06q1.44-0.96 3.18-1.12c1.29-0.12 2.52 0.04 3.76 0.5 1.12-2.47 2.24-4.91 3.38-7.42-0.14-0.06-0.22-0.11-0.31-0.15zm-0.83-4.19q-6.27-2.41-12.53-4.84-1.82-0.71-3.65-1.42-0.15-0.05-0.28-0.07-0.3-0.08-0.65 0.06-4.18 1.63-8.36 3.24-4.05 1.56-8.09 3.12c-1.26 0.5-1.85 1.63-1.49 2.92q0.27-0.09 0.55-0.2 8.64-3.33 17.28-6.69 0.36-0.14 0.7-0.09 0.17 0.01 0.38 0.09 1.78 0.69 3.56 1.38 5.59 2.17 11.19 4.33c1.02 0.4 2.05 0.79 3.16 1.22 0.02-0.35 0.06-0.59 0.04-0.84-0.07-1.16-0.77-1.81-1.81-2.21zm0 0q-6.27-2.41-12.53-4.84-1.83-0.71-3.65-1.42-0.15-0.05-0.28-0.07-0.3-0.08-0.65 0.06-4.18 1.63-8.36 3.24-4.05 1.56-8.09 3.12c-1.26 0.5-1.85 1.63-1.49 2.92q0.27-0.09 0.55-0.2 8.64-3.33 17.28-6.69 0.36-0.14 0.7-0.09 0.17 0.01 0.38 0.09 1.78 0.69 3.56 1.38 5.59 2.17 11.19 4.33c1.02 0.4 2.05 0.79 3.16 1.22 0.02-0.35 0.06-0.59 0.04-0.84-0.07-1.16-0.77-1.81-1.81-2.21zm0.83 4.19q-6.71-2.6-13.43-5.18-1.91-0.75-3.82-1.48-0.06-0.03-0.14-0.03c-0.17-0.02-0.35 0.02-0.5 0.07q-8.26 3.19-16.5 6.39-0.45 0.17-0.9 0.36 0.05 0.17 0.07 0.25 1.88 4.12 3.78 8.25c0.08 0.18 0.3 0.35 0.49 0.42 1.07 0.35 2.19 0.47 3.25 0.14 0.96-0.3 1.87-0.79 2.76-1.27 1.61-0.86 3.3-1.05 5.07-0.76 1.15 0.19 2.11 0.8 3.12 1.33 0.66 0.34 1.38 0.62 2.1 0.76 1.69 0.33 3.22-0.13 4.64-1.06q1.44-0.96 3.18-1.12c1.29-0.12 2.52 0.04 3.76 0.5 1.12-2.47 2.24-4.91 3.38-7.42-0.14-0.06-0.22-0.11-0.31-0.15zm-9.12-21.7c-0.06 1.12-0.19 1.39-0.67 1.39-0.98-0.01-0.66-0.83-0.79-1.35h-2.35v6.19h6.18v-6.23zm-2.52-7.63q-0.45 3.09-0.78 6.21h1.86v-6.21zm-5.11 7.66c-0.13 1.13-0.25 1.35-0.74 1.37-0.5 0.01-0.63-0.22-0.78-1.36h-2.32v6.2h6.18v-6.21zm6.19-1.45v-6.21h-2.39c-0.07 0.56 0.13 1.34-0.71 1.36-0.88 0-0.68-0.79-0.74-1.35h-2.35v6.2zm-22.4 9.13v7.8q0.33-0.1 0.62-0.21 7.15-2.76 14.29-5.54 0.43-0.17 0.82-0.08 0.13 0.03 0.26 0.08 1.83 0.71 3.66 1.42l7.83 3.03q1.69 0.64 3.42 1.32v-7.82zm0 0v7.8q0.33-0.1 0.62-0.21 7.15-2.76 14.29-5.54 0.43-0.17 0.82-0.08 0.13 0.03 0.26 0.08 1.83 0.71 3.66 1.42l7.83 3.03q1.69 0.64 3.42 1.32v-7.82zm16.21-7.68c-0.13 1.13-0.25 1.35-0.74 1.37-0.5 0.01-0.63-0.22-0.78-1.36h-2.32v6.2h6.18v-6.21zm3.8-7.66c-0.07 0.56 0.13 1.34-0.71 1.36-0.88 0-0.68-0.79-0.74-1.35h-2.35v6.2h6.19v-6.21zm3.83 7.63c-0.06 1.12-0.19 1.39-0.67 1.39-0.98-0.01-0.66-0.83-0.79-1.35h-2.35v6.19h6.18v-6.23zm9.12 21.7q-6.71-2.6-13.43-5.18-1.91-0.75-3.82-1.48-0.06-0.03-0.14-0.03c-0.17-0.02-0.35 0.02-0.5 0.07q-8.26 3.19-16.5 6.39-0.45 0.17-0.9 0.36 0.05 0.17 0.07 0.25 1.88 4.12 3.78 8.25c0.08 0.18 0.3 0.35 0.49 0.42 1.07 0.35 2.19 0.47 3.25 0.14 0.96-0.3 1.87-0.79 2.76-1.27 1.61-0.86 3.3-1.05 5.07-0.76 1.15 0.19 2.11 0.8 3.12 1.33 0.66 0.34 1.38 0.62 2.1 0.76 1.69 0.33 3.22-0.13 4.64-1.06q1.44-0.96 3.18-1.12c1.29-0.12 2.52 0.04 3.76 0.5 1.12-2.47 2.24-4.91 3.38-7.42-0.14-0.06-0.22-0.11-0.31-0.15zm-0.83-4.19q-6.27-2.41-12.53-4.84-1.82-0.71-3.65-1.42-0.15-0.05-0.28-0.07-0.3-0.08-0.65 0.06-4.18 1.63-8.36 3.24-4.05 1.56-8.09 3.12c-1.26 0.5-1.85 1.63-1.49 2.92q0.28-0.09 0.55-0.2 8.64-3.33 17.28-6.69 0.37-0.14 0.7-0.09 0.18 0.01 0.38 0.09 1.78 0.69 3.56 1.38 5.59 2.17 11.19 4.33c1.02 0.4 2.05 0.79 3.16 1.22 0.02-0.35 0.06-0.59 0.04-0.84-0.07-1.16-0.77-1.81-1.81-2.21zm0 0q-6.27-2.41-12.53-4.84-1.82-0.71-3.65-1.42-0.15-0.05-0.28-0.07-0.3-0.08-0.65 0.06-4.18 1.63-8.36 3.24-4.05 1.56-8.09 3.12c-1.26 0.5-1.85 1.63-1.49 2.92q0.28-0.09 0.55-0.2 8.64-3.33 17.28-6.69 0.37-0.14 0.7-0.09 0.18 0.01 0.38 0.09 1.78 0.69 3.56 1.38 5.59 2.17 11.19 4.33c1.02 0.4 2.05 0.79 3.16 1.22 0.02-0.35 0.06-0.59 0.04-0.84-0.07-1.16-0.77-1.81-1.81-2.21zm-12.6-0.99q-1.91-0.75-3.82-1.48-0.06-0.03-0.14-0.03c-0.17-0.02-0.35 0.02-0.5 0.07q-8.26 3.19-16.5 6.39-0.45 0.17-0.9 0.36 0.05 0.17 0.07 0.25 1.88 4.12 3.78 8.25c0.08 0.18 0.3 0.35 0.49 0.42 1.07 0.35 2.19 0.47 3.25 0.14 0.96-0.3 1.87-0.79 2.76-1.27 1.61-0.86 3.3-1.05 5.07-0.76 1.15 0.19 2.11 0.8 3.12 1.33 0.66 0.34 1.38 0.62 2.1 0.76 1.69 0.33 3.22-0.13 4.64-1.06q1.44-0.96 3.18-1.12c1.29-0.12 2.52 0.04 3.76 0.5 1.12-2.47 2.24-4.91 3.38-7.42-0.14-0.06-0.22-0.11-0.31-0.15q-6.71-2.6-13.43-5.18zm0.5-16.48v6.19h6.18v-6.23h-2.37c-0.06 1.12-0.19 1.39-0.67 1.39-0.98-0.01-0.66-0.83-0.79-1.35zm-3.82-7.66v6.2h0.34q0.33-3.12 0.76-6.2zm2.34 13.86v-6.21h-2.34c-0.13 1.13-0.25 1.35-0.74 1.37-0.5 0.01-0.63-0.22-0.78-1.36h-2.32v6.2zm-3.64 3.52q0.43-0.17 0.82-0.08 0.13 0.03 0.26 0.08 1.83 0.71 3.66 1.42l7.83 3.03q1.69 0.64 3.42 1.32v-7.82h-30.9v7.8q0.33-0.1 0.62-0.21 7.15-2.76 14.29-5.54zm1.3-9.73c-0.13 1.13-0.25 1.35-0.74 1.37-0.5 0.01-0.63-0.22-0.78-1.36h-2.32v6.2h6.18v-6.21zm7.63-0.03c-0.06 1.12-0.19 1.39-0.67 1.39-0.98-0.01-0.66-0.83-0.79-1.35h-2.35v6.19h6.18v-6.23zm8.29 17.51q-6.27-2.41-12.53-4.84-1.82-0.71-3.65-1.42-0.15-0.05-0.28-0.07-0.3-0.08-0.65 0.06-4.18 1.63-8.36 3.24-4.05 1.56-8.09 3.12c-1.26 0.5-1.85 1.63-1.49 2.92q0.28-0.09 0.55-0.2 8.64-3.33 17.28-6.69 0.37-0.14 0.7-0.09 0.18 0.01 0.38 0.09 1.78 0.69 3.56 1.38 5.6 2.17 11.19 4.33c1.02 0.4 2.05 0.79 3.16 1.22 0.02-0.35 0.06-0.59 0.04-0.84-0.07-1.16-0.77-1.81-1.81-2.21zm-12.6-0.99q-1.91-0.75-3.82-1.48-0.06-0.03-0.14-0.03c-0.17-0.02-0.35 0.02-0.5 0.07q-8.26 3.19-16.5 6.39-0.45 0.17-0.9 0.36 0.05 0.17 0.07 0.25 1.88 4.12 3.78 8.25c0.08 0.18 0.3 0.35 0.49 0.42 1.07 0.35 2.19 0.47 3.25 0.14 0.96-0.3 1.87-0.79 2.76-1.27 1.61-0.86 3.3-1.05 5.07-0.76 1.15 0.19 2.11 0.8 3.12 1.33 0.66 0.34 1.38 0.62 2.1 0.76 1.69 0.33 3.22-0.13 4.64-1.06q1.44-0.96 3.18-1.12c1.29-0.12 2.52 0.04 3.76 0.5 1.12-2.47 2.24-4.91 3.38-7.42-0.14-0.06-0.22-0.11-0.31-0.15q-6.71-2.6-13.43-5.18zm0.5-16.48v6.19h6.18v-6.23h-2.37c-0.06 1.12-0.19 1.39-0.67 1.39-0.98-0.01-0.66-0.83-0.79-1.35zm-3.82-7.66v6.2h0.34q0.33-3.12 0.76-6.2zm2.34 13.86v-6.21h-2.34c-0.13 1.13-0.25 1.35-0.74 1.37-0.5 0.01-0.63-0.22-0.78-1.36h-2.32v6.2zm-3.64 3.52q0.43-0.17 0.82-0.08 0.13 0.03 0.26 0.08 1.83 0.71 3.66 1.42l7.83 3.03q1.69 0.64 3.42 1.32v-7.82h-30.9v7.8q0.33-0.1 0.62-0.21 7.15-2.76 14.29-5.54zm-14.91-2.05v7.8q0.33-0.1 0.62-0.21 7.15-2.76 14.29-5.54 0.43-0.17 0.82-0.08 0.13 0.03 0.26 0.08 1.83 0.71 3.66 1.42l7.83 3.03q1.69 0.64 3.42 1.32v-7.82zm16.21-7.68c-0.13 1.13-0.25 1.35-0.74 1.37-0.5 0.01-0.63-0.22-0.78-1.36h-2.32v6.2h6.18v-6.21zm3.8-7.66c-0.07 0.56 0.13 1.34-0.71 1.36-0.88 0-0.68-0.79-0.74-1.35h-2.35v6.2h6.19v-6.21zm3.83 7.63c-0.06 1.12-0.19 1.39-0.67 1.39-0.98-0.01-0.66-0.83-0.79-1.35h-2.35v6.19h6.18v-6.23zm9.12 21.7q-6.71-2.6-13.43-5.18-1.91-0.75-3.82-1.48-0.06-0.03-0.14-0.03c-0.17-0.02-0.35 0.02-0.5 0.07q-8.26 3.19-16.5 6.39-0.45 0.17-0.9 0.36 0.05 0.17 0.07 0.25 1.88 4.12 3.78 8.25c0.08 0.18 0.3 0.35 0.49 0.42 1.07 0.35 2.19 0.47 3.25 0.14 0.96-0.3 1.87-0.79 2.76-1.27 1.61-0.86 3.3-1.05 5.07-0.76 1.15 0.19 2.11 0.8 3.12 1.33 0.66 0.34 1.38 0.62 2.1 0.76 1.69 0.33 3.22-0.13 4.64-1.06q1.44-0.96 3.18-1.12c1.29-0.12 2.52 0.04 3.76 0.5 1.12-2.47 2.24-4.91 3.38-7.42-0.14-0.06-0.22-0.11-0.31-0.15zm-0.83-4.19q-6.27-2.41-12.53-4.84-1.82-0.71-3.65-1.42-0.15-0.05-0.28-0.07-0.3-0.08-0.65 0.06-4.18 1.63-8.36 3.24-4.05 1.56-8.09 3.12c-1.26 0.5-1.85 1.63-1.49 2.92q0.28-0.09 0.55-0.2 8.64-3.33 17.28-6.69 0.37-0.14 0.7-0.09 0.18 0.01 0.38 0.09 1.78 0.69 3.56 1.38 5.6 2.17 11.19 4.33c1.02 0.4 2.05 0.79 3.16 1.22 0.02-0.35 0.06-0.59 0.04-0.84-0.07-1.16-0.77-1.81-1.81-2.21zm0 0q-6.27-2.41-12.53-4.84-1.82-0.71-3.65-1.42-0.15-0.05-0.28-0.07-0.3-0.08-0.65 0.06-4.18 1.63-8.36 3.24-4.05 1.56-8.09 3.12c-1.26 0.5-1.85 1.63-1.49 2.92q0.28-0.09 0.55-0.2 8.64-3.33 17.28-6.69 0.37-0.14 0.7-0.09 0.18 0.01 0.38 0.09 1.78 0.69 3.56 1.38 5.6 2.17 11.19 4.33c1.02 0.4 2.05 0.79 3.16 1.22 0.02-0.35 0.06-0.59 0.04-0.84-0.07-1.16-0.77-1.81-1.81-2.21zm0.83 4.19q-6.71-2.6-13.43-5.18-1.91-0.75-3.82-1.48-0.06-0.03-0.14-0.03c-0.17-0.02-0.35 0.02-0.5 0.07q-8.26 3.19-16.5 6.39-0.45 0.17-0.9 0.36 0.05 0.17 0.07 0.25 1.88 4.12 3.78 8.25c0.08 0.18 0.3 0.35 0.49 0.42 1.07 0.35 2.19 0.47 3.25 0.14 0.96-0.3 1.87-0.79 2.76-1.27 1.61-0.86 3.3-1.05 5.07-0.76 1.15 0.19 2.11 0.8 3.12 1.33 0.66 0.34 1.38 0.62 2.1 0.76 1.69 0.33 3.22-0.13 4.64-1.06q1.44-0.96 3.18-1.12c1.29-0.12 2.52 0.04 3.76 0.5 1.12-2.47 2.24-4.91 3.38-7.42-0.14-0.06-0.22-0.11-0.31-0.15zm-9.12-21.7c-0.06 1.12-0.19 1.39-0.67 1.39-0.98-0.01-0.66-0.83-0.79-1.35h-2.35v6.19h6.18v-6.23zm-3.83-7.63c-0.07 0.56 0.13 1.34-0.71 1.36-0.88 0-0.68-0.79-0.74-1.35h-2.35v6.2h6.19v-6.21zm-3.8 7.66c-0.13 1.13-0.25 1.35-0.74 1.37-0.5 0.01-0.63-0.22-0.78-1.36h-2.32v6.2h6.18v-6.21zm-16.21 7.68v7.8q0.33-0.1 0.62-0.21 7.15-2.76 14.29-5.54 0.43-0.17 0.82-0.08 0.13 0.03 0.26 0.08 1.83 0.71 3.66 1.42l7.83 3.03q1.69 0.64 3.42 1.32v-7.82zm0 0v7.8q0.33-0.1 0.62-0.21 7.15-2.76 14.29-5.54 0.43-0.17 0.82-0.08 0.13 0.03 0.26 0.08 1.83 0.71 3.66 1.42l7.83 3.03q1.69 0.64 3.42 1.32v-7.82zm16.21-15.33v6.2h0.34q0.33-3.12 0.76-6.2zm0 7.65c-0.13 1.13-0.25 1.35-0.74 1.37-0.5 0.01-0.63-0.22-0.78-1.36h-2.32v6.2h6.18v-6.21zm5.11-7.66q-0.45 3.09-0.78 6.21h1.86v-6.21zm2.52 7.63c-0.06 1.12-0.19 1.39-0.67 1.39-0.98-0.01-0.66-0.83-0.79-1.35h-2.35v6.19h6.18v-6.23zm9.12 21.7q-6.71-2.6-13.43-5.18-1.91-0.75-3.82-1.48-0.06-0.03-0.14-0.03c-0.17-0.02-0.35 0.02-0.5 0.07q-8.26 3.19-16.5 6.39-0.45 0.17-0.9 0.36 0.05 0.17 0.07 0.25 1.88 4.12 3.78 8.25c0.08 0.18 0.3 0.35 0.49 0.42 1.07 0.35 2.19 0.47 3.25 0.14 0.96-0.3 1.87-0.79 2.76-1.27 1.61-0.86 3.3-1.05 5.07-0.76 1.15 0.19 2.11 0.8 3.12 1.33 0.66 0.34 1.38 0.62 2.1 0.76 1.69 0.33 3.22-0.13 4.64-1.06q1.44-0.96 3.18-1.12c1.29-0.12 2.52 0.04 3.76 0.5 1.12-2.47 2.24-4.91 3.38-7.42-0.14-0.06-0.22-0.11-0.31-0.15zm-0.83-4.19q-6.27-2.41-12.53-4.84-1.82-0.71-3.65-1.42-0.15-0.05-0.28-0.07-0.3-0.08-0.65 0.06-4.18 1.63-8.36 3.24-4.05 1.56-8.09 3.12c-1.26 0.5-1.85 1.63-1.49 2.92q0.28-0.09 0.55-0.2 8.64-3.33 17.28-6.69 0.37-0.14 0.7-0.09 0.18 0.01 0.38 0.09 1.78 0.69 3.56 1.38 5.6 2.17 11.19 4.33c1.02 0.4 2.05 0.79 3.16 1.22 0.02-0.35 0.06-0.59 0.04-0.84-0.07-1.16-0.77-1.81-1.81-2.21zm0.83 4.19q-6.71-2.6-13.43-5.18-1.91-0.75-3.82-1.48-0.06-0.03-0.14-0.03c-0.17-0.02-0.35 0.02-0.5 0.07q-8.26 3.19-16.5 6.39-0.45 0.17-0.9 0.36 0.05 0.17 0.07 0.25 1.88 4.12 3.78 8.25c0.08 0.18 0.3 0.35 0.49 0.42 1.07 0.35 2.19 0.47 3.25 0.14 0.96-0.3 1.87-0.79 2.76-1.27 1.61-0.86 3.3-1.05 5.07-0.76 1.15 0.19 2.11 0.8 3.12 1.33 0.66 0.34 1.38 0.62 2.1 0.76 1.69 0.33 3.22-0.13 4.64-1.06q1.44-0.96 3.18-1.12c1.29-0.12 2.52 0.04 3.76 0.5 1.12-2.47 2.24-4.91 3.38-7.42-0.14-0.06-0.22-0.11-0.31-0.15zm-0.83-4.19q-6.27-2.41-12.53-4.84-1.82-0.71-3.65-1.42-0.15-0.05-0.28-0.07-0.3-0.08-0.65 0.06-4.18 1.63-8.36 3.24-4.05 1.56-8.09 3.12c-1.26 0.5-1.85 1.63-1.49 2.92q0.28-0.09 0.55-0.2 8.64-3.33 17.28-6.69 0.37-0.14 0.7-0.09 0.18 0.01 0.38 0.09 1.78 0.69 3.56 1.38 5.6 2.17 11.19 4.33c1.02 0.4 2.05 0.79 3.16 1.22 0.02-0.35 0.06-0.59 0.04-0.84-0.07-1.16-0.77-1.81-1.81-2.21zm-8.29-17.51c-0.06 1.12-0.19 1.39-0.67 1.39-0.98-0.01-0.66-0.83-0.79-1.35h-2.35v6.19h6.18v-6.23zm-7.63 0.03c-0.13 1.13-0.25 1.35-0.74 1.37-0.5 0.01-0.63-0.22-0.78-1.36h-2.32v6.2h6.18v-6.21zm-16.21 7.68v7.8q0.33-0.1 0.62-0.21 7.15-2.76 14.29-5.54 0.43-0.17 0.82-0.08 0.13 0.03 0.26 0.08 1.83 0.71 3.66 1.42l7.83 3.03q1.69 0.64 3.42 1.32v-7.82zm16.21-15.33v6.2h0.34q0.33-3.12 0.76-6.2zm0 7.65c-0.13 1.13-0.25 1.35-0.74 1.37-0.5 0.01-0.63-0.22-0.78-1.36h-2.32v6.2h6.18v-6.21zm5.11-7.66q-0.45 3.09-0.78 6.21h1.86v-6.21zm2.52 7.63c-0.06 1.12-0.19 1.39-0.67 1.39-0.98-0.01-0.66-0.83-0.79-1.35h-2.35v6.19h6.18v-6.23zm9.12 21.7q-6.71-2.6-13.43-5.18-1.91-0.75-3.82-1.48-0.06-0.03-0.14-0.03c-0.17-0.02-0.35 0.02-0.5 0.07q-8.26 3.19-16.5 6.39-0.45 0.17-0.9 0.36 0.05 0.17 0.07 0.25 1.88 4.12 3.78 8.25c0.08 0.18 0.3 0.35 0.49 0.42 1.07 0.35 2.19 0.47 3.25 0.14 0.96-0.3 1.87-0.79 2.76-1.27 1.61-0.86 3.3-1.05 5.07-0.76 1.15 0.19 2.11 0.8 3.12 1.33 0.66 0.34 1.38 0.62 2.1 0.76 1.69 0.33 3.22-0.13 4.64-1.06q1.44-0.96 3.18-1.12c1.29-0.12 2.52 0.04 3.76 0.5 1.12-2.47 2.24-4.91 3.38-7.42-0.14-0.06-0.22-0.11-0.31-0.15zm-0.83-4.19q-6.27-2.41-12.53-4.84-1.82-0.71-3.65-1.42-0.15-0.05-0.28-0.07-0.3-0.08-0.65 0.06-4.18 1.63-8.36 3.24-4.05 1.56-8.09 3.12c-1.26 0.5-1.85 1.63-1.49 2.92q0.28-0.09 0.55-0.2 8.64-3.33 17.28-6.69 0.37-0.14 0.7-0.09 0.18 0.01 0.38 0.09 1.78 0.69 3.56 1.38 5.6 2.17 11.19 4.33c1.02 0.4 2.05 0.79 3.16 1.22 0.02-0.35 0.06-0.59 0.04-0.84-0.07-1.16-0.77-1.81-1.81-2.21zm-32.13-9.8v7.8q0.33-0.1 0.62-0.21 7.15-2.76 14.29-5.54 0.43-0.17 0.82-0.08 0.13 0.03 0.26 0.08 1.83 0.71 3.66 1.42l7.83 3.03q1.69 0.64 3.42 1.32v-7.82z"/>
		<path class="s1" d="m214.62 240.91c-0.16 0.22-0.5 0.41-0.76 0.42q-0.15 0-0.29 0 0.55-0.43 1.08-0.91c0.05 0.17 0.05 0.4-0.03 0.49z"/>
	</g>
</svg>