<svg version="1.2" xmlns="http://www.w3.org/2000/svg" viewBox="0 0 756 488" width="756" height="488">
	<style>
		.s0 { fill: #002a84 } 
		.s1 { fill: #afaeb4 } 
		.s2 { fill: #00b598 } 
		.s3 { fill: #ffffff } 
	</style>
	<g>
		<g>
			<path fill-rule="evenodd" class="s0" d="m296.87 269.28v88.63l-76.2-88.63h-26.52v145.36h35.34v-81.46l69.61 81.46h33.12v-145.36h-35.35z"/>
			<path fill-rule="evenodd" class="s0" d="m670.71 382.18v-112.9h-35.96v145.36h108.64v-32.46h-72.68z"/>
			<path fill-rule="evenodd" class="s0" d="m526.56 269.28l-25.26 44.65-53.55 100.4h37.84l48.17-90.83 47.65 90.83h39.06l-77.94-145.05h-15.97z"/>
			<path fill-rule="evenodd" class="s0" d="m484.55 268.97h-137.94v35.35h51.41v110.01h35.35v-110.01h51.18v-35.35z"/>
			<path class="s0" d="m178.72 414.33l-77.94-145.05h-13.51l-25.27 44.65-53.49 100.29q-0.21 0.25-0.41 0.51l24.98 19.16c17.8-23.2 48.45-48.82 96.64-42.51l12.39 22.95c0 0 36.6 0 36.61 0zm-108.26-48.26l22.51-43.21 19.04 35.54c-14.48 0.26-28.39 2.88-41.56 7.66z"/>
		</g>
		<g>
			<path class="s1" d="m209.07 453.85q-1.03-2.17-3-3.37-1.97-1.19-4.56-1.19-2.6 0-4.69 1.19-2.08 1.2-3.28 3.42-1.2 2.23-1.2 5.15 0 2.92 1.2 5.14 1.2 2.21 3.28 3.41 2.08 1.2 4.69 1.2 3.63 0 5.99-2.18 2.35-2.18 2.75-5.88h-9.91v-2.64h13.37v2.5q-0.28 3.07-1.93 5.62-1.64 2.55-4.31 4.03-2.68 1.48-5.95 1.48-3.46 0-6.31-1.62-2.85-1.62-4.51-4.51-1.66-2.89-1.66-6.53 0-3.64 1.66-6.54 1.66-2.91 4.51-4.53 2.86-1.62 6.31-1.62 3.96 0 7.01 1.96 3.05 1.96 4.44 5.53h-3.89z"/>
			<path class="s1" d="m234.82 462.94h-15.62q0.18 2.89 1.98 4.51 1.8 1.62 4.37 1.62 2.1 0 3.51-0.98 1.41-0.98 1.98-2.62h3.49q-0.78 2.82-3.14 4.58-2.35 1.76-5.85 1.77-2.78 0-4.97-1.25-2.19-1.24-3.44-3.55-1.25-2.3-1.25-5.33 0-3.03 1.21-5.31 1.21-2.28 3.41-3.51 2.19-1.23 5.05-1.23c1.91 0 3.5 0.4 4.92 1.21q2.15 1.22 3.3 3.33 1.16 2.12 1.16 4.8 0 0.93-0.11 1.96zm-4.06-5.83q-0.82-1.34-2.23-2.03-1.41-0.7-3.12-0.7-2.46 0-4.19 1.57-1.72 1.57-1.98 4.35h12.34q0-1.86-0.82-3.19z"/>
			<path class="s1" d="m242.28 454.63v11.52q0 1.43 0.61 2.01 0.61 0.59 2.1 0.59h2.39v2.75h-2.92q-2.71 0-4.07-1.25-1.36-1.25-1.36-4.1v-11.52h-2.53v-2.67h2.53v-4.92h3.25v4.92h5.1v2.67z"/>
			<path class="s1" d="m259.14 448.14q-0.64-0.64-0.64-1.57 0-0.93 0.64-1.57 0.64-0.64 1.57-0.64c0.62 0 1.1 0.21 1.52 0.64q0.63 0.64 0.62 1.57 0 0.93-0.62 1.57-0.63 0.64-1.52 0.64-0.91 0-1.57-0.64zm3.14 3.82v19.54h-3.24v-19.54z"/>
			<path class="s1" d="m270.88 454.63v11.52q0 1.43 0.61 2.01 0.61 0.59 2.1 0.59h2.39v2.75h-2.92q-2.71 0-4.07-1.25-1.36-1.25-1.36-4.1v-11.52h-2.53v-2.67h2.53v-4.92h3.25v4.92h5.1v2.67z"/>
			<path class="s1" d="m305.36 462.94h-15.62q0.18 2.89 1.98 4.51 1.8 1.62 4.37 1.62 2.1 0 3.51-0.98 1.41-0.98 1.98-2.62h3.49q-0.78 2.82-3.14 4.58-2.35 1.76-5.85 1.77-2.78 0-4.97-1.25-2.19-1.24-3.44-3.55-1.25-2.3-1.25-5.33 0-3.03 1.21-5.31 1.21-2.28 3.41-3.51 2.19-1.23 5.05-1.23c1.91 0 3.5 0.4 4.92 1.21q2.15 1.22 3.3 3.33 1.16 2.12 1.16 4.8 0 0.93-0.11 1.96zm-4.07-5.83q-0.82-1.34-2.23-2.03-1.41-0.7-3.12-0.7-2.46 0-4.19 1.57-1.73 1.57-1.98 4.35h12.34q0-1.86-0.82-3.19z"/>
			<path class="s1" d="m308.85 456.4q1.22-2.26 3.33-3.51 2.12-1.25 4.73-1.25c1.74 0 3.2 0.37 4.46 1.11q1.89 1.11 2.82 2.78v-3.57h3.28v19.54h-3.28v-3.64q-0.96 1.71-2.87 2.84-1.9 1.12-4.44 1.12c-1.69 0-3.3-0.43-4.71-1.28q-2.1-1.29-3.32-3.6-1.21-2.31-1.21-5.28 0-2.98 1.21-5.26zm14.45 1.44q-0.89-1.64-2.41-2.51-1.52-0.87-3.33-0.87-1.82 0-3.32 0.86-1.5 0.85-2.39 2.5-0.89 1.64-0.89 3.85c0 1.47 0.3 2.8 0.89 3.91q0.89 1.66 2.39 2.53 1.49 0.87 3.32 0.87 1.82 0 3.33-0.87 1.51-0.87 2.41-2.53 0.89-1.65 0.89-3.87 0-2.22-0.89-3.85z"/>
			<path class="s1" d="m334.96 471.05q-1.79-0.76-2.82-2.14-1.03-1.37-1.14-3.16h3.35q0.14 1.47 1.37 2.39 1.23 0.93 3.23 0.93 1.86 0 2.92-0.82 1.07-0.83 1.07-2.07c0-0.83-0.38-1.49-1.14-1.91q-1.14-0.63-3.53-1.23-2.17-0.57-3.55-1.16-1.38-0.58-2.35-1.75-0.98-1.16-0.98-3.05 0-1.5 0.89-2.75 0.89-1.25 2.53-1.98 1.64-0.73 3.74-0.73 3.24 0 5.24 1.64 1.99 1.64 2.14 4.49h-3.24q-0.11-1.53-1.23-2.46-1.12-0.93-3.01-0.93-1.75 0-2.78 0.75-1.03 0.75-1.03 1.96 0 0.96 0.62 1.59 0.63 0.63 1.57 1 0.94 0.37 2.62 0.84 2.1 0.57 3.42 1.12 1.32 0.55 2.26 1.66 0.95 1.11 0.98 2.89 0 1.6-0.89 2.89-0.89 1.29-2.51 2.02-1.62 0.73-3.73 0.73-2.25 0-4.03-0.77z"/>
			<path class="s1" d="m366.63 451.96l-11.77 28.74h-3.35l3.85-9.41-7.88-19.33h3.6l6.13 15.83 6.06-15.83c0 0 3.35 0 3.36 0z"/>
			<path class="s1" d="m372.33 467.01l-3.99 9.59h-2.18l2.6-9.59z"/>
			<path class="s1" d="m394.49 452.17q1.59 0.86 2.44 2.25v-2.82h6.1v19.86q0 2.75-1.09 4.97-1.09 2.23-3.32 3.55-2.23 1.32-5.55 1.32-4.42 0-7.17-2.09-2.75-2.08-3.14-5.65h6.03q0.28 1.14 1.36 1.8 1.06 0.66 2.64 0.66 1.89 0 3.01-1.09 1.12-1.09 1.12-3.48v-2.82q-0.88 1.39-2.46 2.26-1.57 0.87-3.67 0.87-2.46 0-4.46-1.27-1.99-1.26-3.16-3.6-1.16-2.34-1.16-5.4 0-3.07 1.16-5.38 1.15-2.32 3.16-3.57 2-1.25 4.46-1.25 2.1-0.01 3.69 0.86zm1.18 5.78q-1.26-1.32-3.08-1.32-1.81 0-3.09 1.3-1.26 1.3-1.27 3.58 0 2.28 1.27 3.62 1.26 1.34 3.09 1.34 1.83 0 3.08-1.32 1.26-1.32 1.27-3.6 0-2.28-1.27-3.6z"/>
			<path class="s1" d="m425.22 463.01h-13.8q0.14 1.85 1.19 2.84 1.05 0.98 2.59 0.98 2.28 0 3.17-1.93h6.49q-0.5 1.96-1.8 3.53-1.31 1.58-3.26 2.46-1.96 0.9-4.39 0.89-2.93 0-5.21-1.25-2.28-1.24-3.57-3.57-1.28-2.32-1.28-5.42 0-3.1 1.27-5.42 1.26-2.32 3.55-3.57 2.28-1.25 5.24-1.25c1.97 0 3.64 0.4 5.14 1.21q2.25 1.21 3.51 3.46 1.27 2.25 1.27 5.24 0 0.86-0.11 1.78zm-6.14-3.39q0-1.57-1.07-2.5-1.06-0.93-2.67-0.93c-1.07 0-1.88 0.3-2.58 0.89q-1.05 0.89-1.3 2.53h7.63z"/>
			<path class="s1" d="m438.73 466.33v5.17h-3.1q-3.31 0-5.17-1.62-1.86-1.62-1.85-5.3v-7.92h-2.43v-5.06h2.43v-4.85h6.1v4.85h3.99v5.06h-3.99v7.99q0 0.9 0.43 1.28 0.43 0.39 1.43 0.39h2.18z"/>
			<path class="s1" d="m448.34 448.59q-1.02-0.94-1.02-2.34 0-1.41 1.02-2.37 1.02-0.94 2.62-0.94c1.07 0 1.91 0.32 2.59 0.94q1.02 0.94 1.02 2.37 0 1.41-1.02 2.34-1.02 0.94-2.59 0.94-1.59 0-2.62-0.94zm5.65 3.01v19.9h-6.1v-19.9z"/>
			<path class="s1" d="m468.61 466.33v5.17h-3.1q-3.31 0-5.17-1.62-1.86-1.62-1.85-5.3v-7.92h-2.43v-5.06h2.43v-4.85h6.1v4.85h3.99v5.06h-3.99v7.99q0 0.9 0.43 1.28 0.43 0.39 1.43 0.39h2.18z"/>
			<path class="s1" d="m481.24 470.89q-2.04-0.89-3.21-2.44-1.17-1.55-1.32-3.48h6.03q0.1 1.04 0.96 1.68 0.85 0.64 2.1 0.64 1.14 0 1.77-0.45 0.62-0.45 0.62-1.16 0-0.85-0.89-1.27-0.89-0.41-2.89-0.91-2.15-0.5-3.57-1.05-1.43-0.55-2.46-1.75-1.03-1.2-1.03-3.23 0-1.71 0.94-3.12 0.95-1.41 2.78-2.23 1.83-0.82 4.37-0.82 3.75 0 5.9 1.85 2.16 1.86 2.48 4.92h-5.63q-0.15-1.04-0.91-1.64-0.76-0.61-2.02-0.61-1.07 0-1.64 0.41-0.57 0.41-0.57 1.12 0 0.86 0.91 1.28 0.91 0.43 2.84 0.86 2.21 0.57 3.6 1.12 1.39 0.55 2.44 1.78 1.05 1.23 1.09 3.3 0 1.75-0.98 3.12-0.97 1.37-2.82 2.16-1.84 0.78-4.26 0.79-2.6 0-4.64-0.89z"/>
			<path class="s1" d="m496.73 456.13q1.15-2.32 3.16-3.57 2-1.25 4.46-1.25 2.1-0.01 3.69 0.86 1.59 0.86 2.44 2.25v-2.82h6.1v19.9h-6.1v-2.82q-0.89 1.39-2.48 2.25-1.59 0.86-3.69 0.86-2.43 0-4.42-1.27-1.99-1.26-3.16-3.6-1.16-2.34-1.16-5.4 0-3.06 1.16-5.39zm12.48 1.82q-1.26-1.32-3.08-1.32-1.82 0-3.09 1.3-1.27 1.3-1.27 3.58 0 2.28 1.27 3.62 1.26 1.34 3.09 1.34 1.83 0 3.08-1.32 1.27-1.32 1.27-3.6 0-2.28-1.27-3.6z"/>
			<path class="s1" d="m530.09 456.66h-3.28v14.83h-6.1v-14.83h-2.21v-5.06h2.21v-0.57q0-3.68 2.1-5.58 2.1-1.91 6.17-1.91 0.68 0 1 0.04v5.17q-1.75-0.1-2.46 0.5-0.72 0.61-0.71 2.18v0.18h3.28c0 0 0 5.06 0 5.05z"/>
			<path class="s1" d="m550.71 463.01h-13.8q0.14 1.85 1.19 2.84 1.05 0.98 2.59 0.98 2.28 0 3.17-1.93h6.49q-0.49 1.96-1.8 3.53-1.31 1.58-3.26 2.46-1.96 0.9-4.39 0.89-2.93 0-5.21-1.25-2.28-1.24-3.57-3.57-1.28-2.32-1.28-5.42 0-3.1 1.27-5.42 1.27-2.32 3.55-3.57 2.28-1.25 5.24-1.25c1.97 0 3.64 0.4 5.14 1.21q2.25 1.21 3.51 3.46 1.27 2.25 1.27 5.24 0 0.86-0.11 1.78zm-6.14-3.39q0-1.57-1.07-2.5-1.07-0.93-2.67-0.93c-1.07 0-1.88 0.3-2.58 0.89q-1.06 0.89-1.3 2.53h7.63z"/>
			<path class="s1" d="m555.32 470.84q-1.02-0.94-1.02-2.34c0-0.93 0.34-1.75 1.02-2.39q1.02-0.96 2.62-0.96 1.59 0 2.58 0.96 1.02 0.96 1.02 2.39 0 1.41-1.02 2.34-1.02 0.95-2.58 0.95c-1.04 0-1.94-0.32-2.62-0.95zm5.83-25.27l-0.71 17.08h-5.17l-0.71-17.08c0 0 6.6 0 6.59 0z"/>
		</g>
		<g>
			<g>
				<path class="s1" d="m419.84 139.95q-3.06 5.15-6.07 10.31c-0.26 0.44-0.59 0.68-1.1 0.69q-6.19 0.16-12.37 0.32-5.11 0.14-10.21 0.25c-0.37 0-0.59 0.12-0.76 0.46-0.31 0.6-0.67 1.16-1.02 1.74q-0.34 0.58-0.7 1.2c0.19 0.04 0.3 0.07 0.41 0.09q9.46 2.09 18.91 4.17c0.95 0.21 1.16 0.7 0.67 1.53q-3.14 5.33-6.27 10.65c-0.28 0.48-0.65 0.68-1.19 0.7q-2.92 0.11-5.84 0.26c-0.16 0-0.39 0.07-0.47 0.19-0.45 0.7-0.87 1.42-1.32 2.18 0.23 0.06 0.38 0.1 0.53 0.14q3.96 0.88 7.92 1.74c0.49 0.1 0.87 0.31 1.2 0.69q2.67 3.05 5.36 6.09c0.12 0.13 0.24 0.25 0.43 0.45 0.41-0.72 0.81-1.38 1.15-2.07 0.09-0.18 0.11-0.49 0.03-0.67q-1.26-2.64-2.59-5.24c-0.25-0.49-0.25-0.9 0.04-1.38q3.15-5.3 6.26-10.6c0.52-0.89 1.03-0.93 1.72-0.15q4.39 4.98 8.78 9.95c1.41 1.6 2.82 3.19 4.29 4.86 0.66-1.12 1.27-2.16 1.87-3.22 0.06-0.1 0.03-0.28-0.03-0.39q-0.47-0.95-0.96-1.88-4.79-9.19-9.56-18.38c-0.21-0.41-0.23-0.8 0.03-1.21q0.56-0.92 1.11-1.86 2.51-4.24 5-8.49c0.78-1.34 0.56-2.91-0.54-3.9-1.47-1.32-3.65-0.97-4.68 0.77z"/>
				<path class="s1" d="m375.75 120.14c-1.09 0-1.98-0.89-1.98-1.98v-32.1c0-1.09 0.89-1.98 1.98-1.98 1.09 0 1.98 0.89 1.98 1.98v32.1c0 1.09-0.89 1.98-1.98 1.98z"/>
				<path class="s1" d="m324.01 134c-0.68 0-1.35-0.36-1.72-0.99l-16.05-27.8c-0.55-0.95-0.22-2.16 0.73-2.71 0.94-0.55 2.16-0.22 2.71 0.73l16.05 27.8c0.55 0.95 0.22 2.16-0.73 2.71q-0.47 0.27-0.99 0.26z"/>
				<path class="s1" d="m286.12 171.88q-0.52 0-0.99-0.27l-27.8-16.05c-0.95-0.55-1.27-1.76-0.73-2.71 0.55-0.95 1.75-1.27 2.71-0.73l27.8 16.05c0.95 0.55 1.27 1.76 0.73 2.71-0.37 0.64-1.03 0.99-1.72 1z"/>
				<path class="s1" d="m272.26 223.63h-32.1c-1.09 0-1.98-0.89-1.98-1.98 0-1.09 0.89-1.98 1.98-1.98h32.1c1.09 0 1.98 0.89 1.98 1.98 0 1.09-0.89 1.98-1.98 1.98z"/>
				<path class="s1" d="m511.35 223.63h-32.1c-1.09 0-1.98-0.89-1.98-1.98 0-1.09 0.89-1.98 1.98-1.98h32.1c1.09 0 1.98 0.89 1.98 1.98 0 1.09-0.89 1.98-1.98 1.98z"/>
				<path class="s1" d="m465.38 171.88c-0.68 0-1.35-0.36-1.72-0.99-0.55-0.95-0.22-2.16 0.73-2.71l27.8-16.05c0.95-0.55 2.16-0.22 2.71 0.73 0.55 0.95 0.22 2.16-0.73 2.71l-27.8 16.05q-0.47 0.27-0.99 0.26z"/>
				<path class="s1" d="m427.5 134q-0.52 0-0.99-0.27c-0.95-0.55-1.27-1.76-0.73-2.71l16.05-27.8c0.55-0.95 1.75-1.27 2.71-0.73 0.95 0.55 1.27 1.76 0.73 2.71l-16.05 27.8c-0.37 0.64-1.03 0.99-1.72 1z"/>
				<path fill-rule="evenodd" class="s1" d="m395.33 184.12l16.05-27.8 3.43 1.98-16.05 27.8z"/>
				<path class="s1" d="m199.28 221.9c0-97.31 79.17-176.48 176.48-176.48 97.31 0 176.48 79.17 176.48 176.48q-0.01 0.87-0.02 1.73h3.96q0.01-0.86 0.02-1.73c0-99.49-80.94-180.44-180.44-180.44-99.5 0-180.44 80.94-180.44 180.44q0.01 0.87 0.02 1.73h3.96q-0.01-0.86-0.02-1.73z"/>
				<path class="s1" d="m242.04 221.9c0-73.73 59.98-133.71 133.71-133.71 73.73 0 133.71 59.98 133.71 133.71 0 0.58-0.04 1.15-0.04 1.73h3.96c0-0.58 0.04-1.15 0.04-1.73 0-75.91-61.76-137.67-137.67-137.67-75.91 0-137.67 61.76-137.67 137.67 0 0.58 0.04 1.15 0.04 1.73h3.96c0-0.58-0.04-1.15-0.04-1.73z"/>
				<path class="s1" d="m336.68 221.9c0-21.54 17.53-39.07 39.07-39.07 21.54 0 39.07 17.53 39.07 39.07 0 0.59-0.06 1.16-0.09 1.73h4.01q0.04-0.86 0.04-1.73c0-23.73-19.3-43.03-43.03-43.03-23.73 0-43.03 19.3-43.03 43.03q0.01 0.87 0.04 1.73h4.01c-0.03-0.58-0.09-1.15-0.09-1.73z"/>
				<path class="s1" d="m361.59 221.9c0-7.81 6.35-14.16 14.16-14.16 7.81 0 14.16 6.35 14.16 14.16q-0.01 0.88-0.12 1.73h3.99q0.08-0.86 0.09-1.73c0-9.99-8.13-18.13-18.13-18.13-10 0-18.13 8.13-18.13 18.13q0 0.88 0.09 1.73h3.99q-0.11-0.86-0.12-1.73z"/>
			</g>
			<g>
				<g>
					<path fill-rule="evenodd" class="s2" d="m375.75 73.2c-16.29 0-29.45-13.16-29.45-29.45 0-16.29 13.16-29.45 29.45-29.45 16.29 0 29.45 13.16 29.45 29.45 0 16.29-13.16 29.45-29.45 29.45z"/>
					<g>
						<path class="s3" d="m386.28 56.49q1.09 1.62 2.18 3.2 1.68 2.48 3.37 4.94c0.23 0.34 0.38 0.69 0.17 1.08-0.2 0.37-0.57 0.42-0.96 0.42q-1.78-0.01-3.57 0c-0.48 0-0.82-0.17-1.09-0.58-0.32-0.48-0.58-1.13-1.03-1.36-0.48-0.24-1.16-0.08-1.75-0.08q-8.49 0-16.98 0c-0.36 0-0.59 0.09-0.78 0.41q-0.38 0.65-0.86 1.22c-0.17 0.19-0.47 0.38-0.71 0.38q-2 0.06-4 0c-0.28-0.01-0.64-0.24-0.8-0.48-0.1-0.15 0.02-0.55 0.16-0.76q2.57-3.82 5.17-7.62 0.11-0.15 0.21-0.33c-0.58-0.37-1.17-0.69-1.7-1.09-2.37-1.82-3.59-4.25-3.6-7.23q-0.03-10.71 0-21.42c0-2.88 1.69-5.02 4.38-5.63 0.47-0.11 0.96-0.14 1.43-0.15q9.75 0 19.49 0c3.05 0 5.24 1.83 5.77 4.81 0.05 0.28 0.05 0.58 0.05 0.86q0 10.73 0 21.47c0 3.35-1.43 5.93-4.22 7.77q-0.13 0.08-0.3 0.21zm-24.89-18.52q-0.01 5.23 0.01 10.47c0 0.7 0.06 1.42 0.23 2.1 0.86 3.36 3.74 5.5 7.34 5.51q6.35 0 12.69 0c0.4 0 0.81 0 1.2-0.07 3.91-0.64 6.47-3.64 6.47-7.6q0-10.56 0-21.13c0-0.41-0.03-0.84-0.13-1.24-0.46-1.9-1.97-3.04-4.03-3.05q-9.82 0-19.64 0c-0.47 0-0.97 0.06-1.42 0.21-1.74 0.56-2.73 2.05-2.73 4.04q0 5.38 0.01 10.76zm22.88 24.56c-0.39-0.55-0.71-1.03-1.06-1.49-0.07-0.09-0.25-0.12-0.38-0.12q-7.08 0-14.17 0c-0.12 0-0.29 0.01-0.35 0.09-0.36 0.48-0.7 0.97-1.08 1.52 0 0 17.05 0 17.04 0zm-2.23-3.16c-0.38-0.55-0.7-1.03-1.05-1.48-0.11-0.14-0.33-0.26-0.5-0.26q-4.76-0.02-9.5 0c-0.12 0-0.3 0-0.35 0.08-0.4 0.53-0.78 1.07-1.2 1.66 0 0 12.61 0 12.6 0zm0.72-1.76q0.04 0.1 0.08 0.18 2.28 3.25 4.57 6.51c0.07 0.1 0.22 0.22 0.33 0.22 0.67 0.02 1.34 0.01 2.12 0.01-1.73-2.52-3.4-4.94-5.05-7.35-0.7 0.14-1.35 0.28-2.05 0.43zm-14.03 0.05c-0.64-0.08-1.23-0.12-1.8-0.24-0.3-0.06-0.43 0.04-0.58 0.26q-2.22 3.24-4.45 6.46c-0.09 0.13-0.16 0.26-0.29 0.47 0.67 0 1.25-0.02 1.84 0 0.31 0.01 0.49-0.09 0.67-0.34q2.02-2.91 4.05-5.8 0.27-0.38 0.56-0.81z"/>
						<path class="s3" d="m375.31 26.96q5.14 0 10.27 0c0.76 0 0.97 0.22 0.98 0.97q0 4.22 0 8.44c0 0.53-0.21 0.82-0.69 1.01-4.11 1.63-8.37 2.15-12.75 1.86q-4.28-0.28-8.3-1.77c-0.63-0.23-0.74-0.4-0.74-1.07q0-4.22 0-8.44c0-0.78 0.23-1 1.01-1q5.12 0 10.22 0zm-9.64 1.65q-0.02 0.16-0.03 0.24 0 3.47 0 6.94c0 0.28 0.1 0.38 0.36 0.46q2.86 0.96 5.85 1.31c0.92 0.11 1.85 0.14 2.8 0.21v-9.16h-8.97zm10.58 9.1c0.1 0.01 0.14 0.02 0.19 0.02q4.23-0.17 8.26-1.47c0.29-0.1 0.4-0.22 0.4-0.53q-0.01-3.37 0-6.75 0-0.18-0.04-0.37h-8.81z"/>
						<path class="s3" d="m364.25 49.25c0-1.78 1.48-3.25 3.25-3.24 1.78 0.01 3.23 1.48 3.23 3.26 0 1.78-1.47 3.25-3.25 3.24-1.78 0-3.23-1.48-3.23-3.26zm3.25-1.59c-0.94 0-1.69 0.74-1.7 1.67 0 0.93 0.75 1.68 1.68 1.69 0.92 0 1.7-0.76 1.7-1.68 0-0.94-0.73-1.67-1.68-1.68z"/>
						<path class="s3" d="m380 49.26c0-1.78 1.47-3.25 3.25-3.25 1.76 0 3.23 1.47 3.23 3.21 0 1.75-1.52 3.29-3.24 3.29-1.77 0-3.24-1.47-3.24-3.25zm3.24 1.76c0.91 0 1.68-0.74 1.69-1.62 0.01-0.93-0.78-1.74-1.69-1.74-0.92 0-1.69 0.77-1.69 1.68 0 0.91 0.77 1.68 1.69 1.68z"/>
					</g>
				</g>
				<g>
					<g>
						<path fill-rule="evenodd" class="s2" d="m556.05 247.34c-16.29 0-29.45-13.16-29.45-29.45 0-16.29 13.16-29.45 29.45-29.45 16.29 0 29.45 13.16 29.45 29.45 0 16.29-13.16 29.45-29.45 29.45z"/>
						<path class="s3" d="m542.72 234.4q-0.7-0.01-1.37 0-0.62 0.02-0.83-0.55-0.73-1.8-1.43-3.61c-0.24-0.63 0.09-1.08 0.77-1.1q0.29 0 0.63 0v-9.75q-0.83 0-1.64 0-1.38 0-2.77 0c-0.49 0-0.8-0.26-0.81-0.72q-0.01-2.65 0-5.3c0-0.45 0.29-0.72 0.75-0.73q1.5-0.01 3 0c0.38 0 0.6 0.22 0.74 0.55 0.33 0.77 0.66 1.53 1.09 2.29q0.12-0.96 0.23-1.92 0.47-4.14 0.92-8.28 0.31-2.72 0.59-5.44c0.13-1.34 1.04-2.19 2.39-2.19q11.3 0 22.59 0c1.34 0 2.25 0.86 2.39 2.2q0.45 4.12 0.91 8.23 0.39 3.59 0.78 7.16c0 0.07 0.02 0.15 0.05 0.32 0.1-0.17 0.17-0.26 0.22-0.35q0.44-1 0.86-2.02 0.23-0.56 0.83-0.55 1.41 0.01 2.81 0c0.58 0 0.84 0.27 0.84 0.87q0 2.5 0 5.01c0 0.59-0.27 0.85-0.86 0.86q-2.15 0-4.35 0v9.75q0.32 0 0.67 0c0.59 0.02 0.95 0.47 0.75 1.01q-0.73 1.9-1.51 3.78-0.2 0.48-0.74 0.46c-0.47 0-0.93 0-1.45 0q0 1.42 0 2.78c0 1.56-0.9 2.46-2.47 2.47q-1.38 0-2.77 0c-1.28 0-2.25-0.98-2.26-2.25q0-1.46 0-3h-0.54c-3.03 0-13.6 0-16.63 0-0.59 0-0.94-0.34-0.86-0.85q0.08-0.56 0.64-0.64 0.23-0.02 0.47 0c5.77 0 19.07 0 24.84 0.01 0.45 0 0.66-0.14 0.8-0.55 0.18-0.56 0.42-1.1 0.65-1.69h-30.73q0.4 1.05 0.84 2.07c0.05 0.1 0.31 0.15 0.47 0.15q3.52 0 7.03 0c0.81 0 1.02 0.21 1.02 1.03q0 1.71 0 3.42c0 1.34-0.97 2.29-2.31 2.3q-1.48 0-2.95 0c-1.25-0.01-2.22-0.99-2.23-2.23q0-1.43 0-2.86c0-0.03-0.01-0.06-0.03-0.16zm2.38-16.49q0.32 0 0.59 0c5.41 0 14.92 0 20.33 0 0.16 0 0.32-0.02 0.47 0.01q0.58 0.11 0.62 0.71c0.02 0.38-0.24 0.71-0.61 0.77q-0.23 0.02-0.47 0.01c-6.45 0-17.01 0-23.47 0h-0.52v2.25q1.43 0.01 2.8 0c0.4 0 0.68 0.14 0.89 0.48q1.04 1.75 2.09 3.5c0.42 0.71 0.09 1.27-0.74 1.27q-2.27 0-4.55 0-0.25 0-0.5 0v2.22h28.45v-2.22q-0.25 0-0.48 0-2.25 0-4.5 0c-0.36 0-0.69-0.02-0.9-0.37-0.21-0.37-0.06-0.68 0.13-1 0.65-1.08 1.32-2.16 1.94-3.25 0.26-0.46 0.6-0.65 1.14-0.63 0.88 0.04 1.77 0.01 2.65 0.01v-2.25q-2.57 0-5.09 0c-0.56 0-0.87-0.28-0.87-0.75 0-0.47 0.32-0.74 0.88-0.74q1 0 2.02 0m1.53-0.05h1.47q-0.18-1.61-0.36-3.18-0.39-3.59-0.79-7.16-0.41-3.65-0.81-7.3c-0.09-0.88-0.29-1.09-1.17-1.09q-11.04 0-22.08 0-0.14 0-0.28 0c-0.45 0.02-0.74 0.22-0.81 0.68q-0.06 0.42-0.1 0.84-0.41 3.6-0.8 7.21-0.36 3.18-0.71 6.37-0.19 1.8-0.4 3.62h1.47m5.2 16.57h-4.5q-0.01 1.49 0 2.93c0 0.48 0.32 0.77 0.82 0.78q1.43 0.01 2.86 0c0.5 0 0.81-0.3 0.81-0.78 0.02-0.97 0-1.93 0.01-2.93zm15-0.02q-0.01 1.52 0 2.98c0 0.44 0.31 0.74 0.75 0.74q1.5 0.03 3 0c0.43-0.01 0.72-0.29 0.73-0.71 0.03-0.99 0-1.99 0-3.01h-4.5zm8.67-16.54h3.3v-3.72c-0.51 0-0.99-0.02-1.47 0.01-0.13 0-0.3 0.14-0.35 0.26q-0.5 1.1-0.96 2.22-0.25 0.59-0.51 1.22zm-32.33 0q-0.79-1.83-1.53-3.56c-0.03-0.07-0.12-0.16-0.19-0.16q-0.81-0.01-1.6 0v3.73c0 0 3.32 0 3.32-0.01zm5.8 7.5q-0.65-1.1-1.27-2.11c-0.03-0.06-0.12-0.11-0.19-0.11q-1.21 0-2.41 0v2.23c0 0 3.87 0 3.87-0.01zm24.59-2.23q-1.2 0-2.33 0c-0.1 0-0.25 0.07-0.3 0.15-0.42 0.67-0.82 1.34-1.25 2.07h3.88z"/>
					</g>
					<g>
						<path fill-rule="evenodd" class="s2" d="m195.45 247.34c-16.29 0-29.45-13.16-29.45-29.45 0-16.29 13.16-29.45 29.45-29.45 16.29 0 29.45 13.16 29.45 29.45 0 16.29-13.16 29.45-29.45 29.45z"/>
						<g>
							<path class="s3" d="m214.12 235.35c-1.19-0.05-2.28-0.4-3.26-1.12q1.92-4.18 3.8-8.35c1-2.24 0.11-4.42-2.17-5.29-0.37-0.14-0.45-0.32-0.45-0.68q0.01-4.19 0-8.39c0-0.68-0.24-0.91-0.92-0.92q-0.34 0-0.69 0h-3.04c0-0.24 0-0.41 0-0.59q0-3.06 0-6.12c0-0.39-0.08-0.73-0.48-0.88-0.16-0.06-0.36-0.04-0.54-0.04q-1.39 0-2.82 0v-0.61q0-3.01 0-6.02c0-0.84-0.2-1.05-1.04-1.05q-7.3 0-14.6 0c-0.87 0-1.08 0.21-1.08 1.07q0 2.99 0 5.97v0.63c-0.99 0-1.92 0-2.86 0-0.76 0-0.95 0.19-0.95 0.97q0 3.06 0 6.12v0.54c-1.25 0-2.42 0-3.58 0-0.9 0-1.1 0.2-1.1 1.1 0 2.66-0.02 5.33 0.01 7.99 0 0.53-0.12 0.79-0.65 0.99-2.02 0.79-2.89 3.04-2.02 5.02q0.55 1.21 1.1 2.42c0.84 1.83 1.67 3.67 2.47 5.43-0.99-0.18-1.96-0.38-2.94-0.52-0.58-0.08-0.94 0.22-0.96 0.67-0.02 0.44 0.32 0.73 0.9 0.75q0.39 0.01 0.79 0.05c1.03 0.11 1.9 0.61 2.75 1.14 1.61 1 3.35 1.25 5.2 1 1.28-0.17 2.35-0.8 3.42-1.44 0.81-0.48 1.68-0.7 2.62-0.76 1.5-0.09 2.8 0.37 4.04 1.17 1.13 0.73 2.37 1.08 3.72 1.13 1.75 0.07 3.27-0.52 4.74-1.4 2.11-1.27 4.26-1.23 6.39 0q0.46 0.28 0.94 0.54 1.63 0.9 3.5 0.85c0.39 0 0.68-0.22 0.68-0.57 0-0.26-0.21-0.54-0.4-0.75-0.09-0.1-0.34-0.07-0.52-0.07zm-11.21-29.59c0.49 0 0.61-0.27 0.67-1.38h2.36v6.21h-6.17v-6.17h2.35c0.13 0.52-0.19 1.34 0.79 1.34zm-6.94-8.99h2.35c0.06 0.56-0.15 1.35 0.73 1.34 0.84-0.01 0.64-0.79 0.71-1.35h2.38v6.2h-6.17zm-0.74 8.99c0.49-0.01 0.61-0.24 0.74-1.36h2.33v6.19h-6.17v-6.18h2.32c0.15 1.13 0.28 1.37 0.78 1.35zm-6.95-9.01h2.34c0.07 0.56-0.13 1.39 0.77 1.36 0.83-0.02 0.65-0.79 0.72-1.38h2.34v6.22h-6.17zm-3.83 7.66h2.34c0.13 0.53-0.16 1.34 0.8 1.34 0.49 0 0.61-0.27 0.68-1.36h2.33v6.18h-6.16c0 0 0-6.16 0.01-6.16zm-4.66 7.65h30.83v7.8q-1.73-0.67-3.42-1.31-5.73-2.21-11.46-4.44c-0.38-0.15-0.7-0.14-1.08 0q-7.13 2.77-14.26 5.53-0.3 0.11-0.61 0.21zm-2.92 12.79c-0.36-1.29 0.23-2.42 1.49-2.91q4.04-1.57 8.07-3.12 4.18-1.6 8.34-3.23c0.34-0.13 0.6-0.11 0.93 0.01q8.07 3.14 16.15 6.24c1.04 0.4 1.73 1.05 1.81 2.21 0.02 0.24-0.03 0.49-0.05 0.83-1.11-0.43-2.13-0.82-3.15-1.21q-7.36-2.84-14.71-5.7c-0.38-0.15-0.7-0.14-1.08 0q-8.63 3.34-17.24 6.68-0.27 0.1-0.56 0.2zm32.75 8.73q-1.84-0.7-3.75-0.5-1.73 0.17-3.17 1.11c-1.42 0.94-2.95 1.39-4.63 1.06-0.73-0.14-1.45-0.42-2.1-0.76-1-0.52-1.96-1.13-3.1-1.32-1.77-0.29-3.45-0.1-5.06 0.76-0.89 0.48-1.8 0.97-2.75 1.26-1.06 0.33-2.18 0.21-3.25-0.14-0.19-0.06-0.41-0.24-0.49-0.42q-1.89-4.11-3.76-8.24c-0.03-0.06-0.04-0.12-0.07-0.24q0.45-0.19 0.89-0.36 8.23-3.19 16.46-6.37c0.19-0.07 0.46-0.11 0.64-0.04q8.61 3.32 17.21 6.65c0.09 0.03 0.17 0.08 0.31 0.15-1.14 2.5-2.25 4.94-3.37 7.4z"/>
							<path class="s3" d="m214.11 239.43q-1.46-0.03-2.72-0.77-0.61-0.36-1.24-0.71c-1.44-0.79-2.99-0.93-4.59-0.75-1.29 0.15-2.38 0.78-3.48 1.42-1.72 1.01-3.53 1.07-5.35 0.37-0.64-0.24-1.21-0.65-1.81-0.99-1.48-0.83-3.07-0.99-4.72-0.8-1.26 0.15-2.33 0.74-3.38 1.39-1.29 0.8-2.7 0.95-4.17 0.75-0.96-0.13-1.77-0.58-2.57-1.08-1.1-0.68-2.27-1.09-3.48-1.13-0.19 0-0.29 0-0.39 0-0.52 0-0.85 0.25-0.86 0.67-0.01 0.41 0.3 0.68 0.82 0.72 0.42 0.04 0.88 0.01 1.26 0.16q1.39 0.56 2.71 1.26c1.6 0.86 3.29 1.05 5.06 0.76 1.15-0.19 2.13-0.75 3.1-1.34 1.43-0.87 2.98-1.08 4.55-0.65 0.91 0.25 1.76 0.77 2.61 1.22 1.6 0.87 3.29 1.06 5.06 0.77 1.18-0.19 2.18-0.79 3.18-1.39 1.37-0.82 2.87-1.03 4.37-0.62 0.96 0.26 1.86 0.79 2.75 1.27q1.6 0.87 3.4 0.86c0.26 0 0.59-0.2 0.76-0.41 0.11-0.14 0.07-0.56-0.07-0.7-0.18-0.18-0.51-0.29-0.78-0.3z"/>
						</g>
					</g>
				</g>
			</g>
		</g>
	</g>
</svg>